<?xml version="1.0" encoding="UTF-8"?>
<svg version="1.1" xmlns="http://www.w3.org/2000/svg" width="500" height="500">
<path d="M0 0 C5.50726317 0.54428089 9.9149072 1.96683911 14.9375 4.25 C15.63681641 4.56138916 16.33613281 4.87277832 17.05664062 5.19360352 C21.98234643 7.42864826 26.53559594 9.93072221 31 13 C30.44937238 16.96282459 28.58336604 18.8030607 25.80859375 21.58984375 C24.94556641 22.45673828 24.08253906 23.32363281 23.19335938 24.21679688 C22.28392578 25.11462891 21.37449219 26.01246094 20.4375 26.9375 C19.55513672 27.83146484 18.67277344 28.72542969 17.76367188 29.64648438 C4.44493177 42.90616133 4.44493177 42.90616133 -3.90405273 43.05004883 C-5.06880127 43.01935303 -6.2335498 42.98865723 -7.43359375 42.95703125 C-8.72330078 42.93576172 -10.01300781 42.91449219 -11.34179688 42.89257812 C-14.03813326 42.8439171 -16.73184787 42.7751204 -19.42773438 42.69726562 C-34.26929938 42.49879002 -45.26047102 46.66880346 -56.1875 56.625 C-65.01929911 65.80936594 -68.45425652 77.83878954 -68.43383789 90.296875 C-68.13630537 101.77348213 -63.91847748 111.71783461 -56 120 C-55.39285156 120.63550781 -54.78570312 121.27101563 -54.16015625 121.92578125 C-43.74264034 131.87461546 -31.15132556 134.23746903 -17.29296875 134.16796875 C-13.99497901 134.1469315 -13.99497901 134.1469315 -11 133 C-8.94202409 132.8282674 -6.87711668 132.73348794 -4.8125 132.6875 C-3.18248047 132.63142578 -3.18248047 132.63142578 -1.51953125 132.57421875 C8.90292517 133.83509306 15.09447209 141.61679372 22 148.75 C23.07067219 149.84076958 24.14227959 150.93062201 25.21484375 152.01953125 C27.82077085 154.66919232 30.41379604 157.33106806 33 160 C31.15791959 164.19170057 28.60686479 165.7948368 24.6875 167.9375 C24.06375488 168.28449951 23.44000977 168.63149902 22.79736328 168.98901367 C8.12287293 176.9560653 -6.41628123 180.52579614 -23.0625 180.375 C-24.98932617 180.39240234 -24.98932617 180.39240234 -26.95507812 180.41015625 C-34.78721808 180.38619254 -41.58909401 179.53733271 -49 177 C-50.74796875 176.41798828 -50.74796875 176.41798828 -52.53125 175.82421875 C-63.4816964 171.63135046 -73.03076812 166.58336098 -82 159 C-82.825 158.32066406 -83.65 157.64132812 -84.5 156.94140625 C-97.21285968 146.0695857 -108.78484541 128.75930978 -112 112 C-111.58984375 109.1640625 -111.58984375 109.1640625 -111 107 C-109.9275 106.773125 -108.855 106.54625 -107.75 106.3125 C-103.0153821 104.65538374 -101.20124963 102.40249925 -99 98 C-98.55591309 94.0920352 -98.86295156 92.25451854 -100.75 88.75 C-104.64160113 83.99359862 -107.98096497 83.69450404 -114 83 C-113.85890014 80.89551062 -113.71195825 78.7914123 -113.5625 76.6875 C-113.48128906 75.51574219 -113.40007812 74.34398437 -113.31640625 73.13671875 C-113 70 -113 70 -112 67 C-107.25 67.875 -107.25 67.875 -105 69 C-92.88398536 70.00247855 -92.88398536 70.00247855 -81.8359375 65.69921875 C-76.98630294 61.21072719 -73.32527702 55.61522173 -72.7265625 48.9609375 C-72.50251536 41.05035006 -72.8764871 35.25467808 -78 29 C-79.91305628 27.10097592 -81.81287828 25.60388926 -84 24 C-84.66 23.34 -85.32 22.68 -86 22 C-84.68 21.01 -83.36 20.02 -82 19 C-81.63648438 19.54269531 -81.27296875 20.08539063 -80.8984375 20.64453125 C-77.76579238 25.10252623 -75.39028732 28.34145005 -70 30 C-63.15899929 30.89625051 -58.51431881 30.1908823 -53 26 C-51.40875595 24.06406511 -50.24589316 22.19277196 -49 20 C-45.26979194 21.72802512 -42.30078319 24.01528176 -39.09765625 26.5625 C-33.12052418 30.65856071 -27.033191 30.83310866 -20 30 C-12.57206553 27.73795197 -7.33853395 23.36825743 -3 17 C-0.41799083 11.71861761 -0.39183899 5.7950925 0 0 Z " fill="#B8E049" transform="translate(142,152)"/>
<path d="M0 0 C5.28 0 10.56 0 16 0 C20.29 10.23 24.58 20.46 29 31 C31.66582317 27.4455691 33.07141277 24.76306462 34.69921875 20.703125 C35.18583984 19.49785156 35.67246094 18.29257813 36.17382812 17.05078125 C36.67851445 15.78390556 37.18307011 14.51697781 37.6875 13.25 C38.20323163 11.9672289 38.71950212 10.68467431 39.23632812 9.40234375 C40.49618755 6.27035677 41.74879263 3.13545345 43 0 C48.28 0 53.56 0 59 0 C59 16.83 59 33.66 59 51 C54.38 51 49.76 51 45 51 C44.505 40.605 44.505 40.605 44 30 C41.03 36.93 38.06 43.86 35 51 C31.37 51 27.74 51 24 51 C19.545 40.605 19.545 40.605 15 30 C14.67 36.93 14.34 43.86 14 51 C9.38 51 4.76 51 0 51 C0 34.17 0 17.34 0 0 Z " fill="#07B89B" transform="translate(426,211)"/>
<path d="M0 0 C5.50726317 0.54428089 9.9149072 1.96683911 14.9375 4.25 C15.63681641 4.56138916 16.33613281 4.87277832 17.05664062 5.19360352 C21.98234643 7.42864826 26.53559594 9.93072221 31 13 C30.44937238 16.96282459 28.58336604 18.8030607 25.80859375 21.58984375 C24.94556641 22.45673828 24.08253906 23.32363281 23.19335938 24.21679688 C22.28392578 25.11462891 21.37449219 26.01246094 20.4375 26.9375 C19.55513672 27.83146484 18.67277344 28.72542969 17.76367188 29.64648438 C4.44493177 42.90616133 4.44493177 42.90616133 -3.90405273 43.05004883 C-5.06880127 43.01935303 -6.2335498 42.98865723 -7.43359375 42.95703125 C-8.72330078 42.93576172 -10.01300781 42.91449219 -11.34179688 42.89257812 C-14.03813326 42.8439171 -16.73184787 42.7751204 -19.42773438 42.69726562 C-33.03737518 42.51526448 -44.13050081 45.72416479 -54.2265625 55.05859375 C-56.19101876 57.00519132 -58.10341761 58.98756303 -60 61 C-60.99661211 62.00337645 -61.99538824 63.00463313 -63 64 C-62.9278125 63.3709375 -62.855625 62.741875 -62.78125 62.09375 C-62.64203125 60.80984375 -62.64203125 60.80984375 -62.5 59.5 C-62.39558594 58.58476562 -62.29117188 57.66953125 -62.18359375 56.7265625 C-62.01892499 54.28105626 -62.22207305 52.28196235 -62.5625 49.875 C-61.8753161 45.14106646 -60.7404436 44.45667554 -57.125 41.5 C-52.4 38 -52.4 38 -50 38 C-50 37.34 -50 36.68 -50 36 C-47.69 35.01 -45.38 34.02 -43 33 C-49.26743907 31.63356354 -49.26743907 31.63356354 -55 33.9375 C-56.485 34.9584375 -56.485 34.9584375 -58 36 C-61.03155566 36.34517713 -63.96295802 36.24296336 -67 36 C-67 38.31 -67 40.62 -67 43 C-67.99 41.68 -68.98 40.36 -70 39 C-70.33 43.29 -70.66 47.58 -71 52 C-71.33 52 -71.66 52 -72 52 C-72.01417969 51.09378906 -72.02835938 50.18757813 -72.04296875 49.25390625 C-72.3825202 40.58157865 -73.25389808 33.72283671 -79.59375 27.4140625 C-81.01083506 26.2123188 -82.5016661 25.09877819 -84 24 C-84.66 23.34 -85.32 22.68 -86 22 C-84.68 21.01 -83.36 20.02 -82 19 C-81.63648438 19.54269531 -81.27296875 20.08539063 -80.8984375 20.64453125 C-77.76579238 25.10252623 -75.39028732 28.34145005 -70 30 C-63.15899929 30.89625051 -58.51431881 30.1908823 -53 26 C-51.40875595 24.06406511 -50.24589316 22.19277196 -49 20 C-45.26979194 21.72802512 -42.30078319 24.01528176 -39.09765625 26.5625 C-33.12052418 30.65856071 -27.033191 30.83310866 -20 30 C-12.57206553 27.73795197 -7.33853395 23.36825743 -3 17 C-0.41799083 11.71861761 -0.39183899 5.7950925 0 0 Z " fill="#57CB75" transform="translate(142,152)"/>
<path d="M0 0 C4.73143888 3.16351566 8.81631507 7.01353479 11.00390625 12.33984375 C11.00390625 13.32984375 11.00390625 14.31984375 11.00390625 15.33984375 C8.41944852 15.44803035 5.83953273 15.52721612 3.25390625 15.58984375 C2.52429688 15.62335938 1.7946875 15.656875 1.04296875 15.69140625 C-2.56323328 15.75697356 -4.49780957 15.76296303 -7.30078125 13.3828125 C-7.86023438 12.70863281 -8.4196875 12.03445312 -8.99609375 11.33984375 C-13.06510468 10.20956294 -15.26295033 10.07196442 -19.24609375 11.52734375 C-23.57631209 14.38135129 -24.71487293 16.02026914 -25.80859375 21.15234375 C-26.16926428 25.2731964 -25.62432931 28.49128697 -23.99609375 32.33984375 C-21.47260951 35.00352155 -19.59947116 36.14309025 -16.12109375 37.27734375 C-12.03835925 37.35899844 -9.54436432 36.31868696 -5.99609375 34.33984375 C-5.33609375 33.01984375 -4.67609375 31.69984375 -3.99609375 30.33984375 C-8.61609375 30.33984375 -13.23609375 30.33984375 -17.99609375 30.33984375 C-17.99609375 27.03984375 -17.99609375 23.73984375 -17.99609375 20.33984375 C-8.42609375 20.33984375 1.14390625 20.33984375 11.00390625 20.33984375 C11.00390625 36.02430977 11.00390625 36.02430977 4.39453125 43.05078125 C-0.95218909 48.07866047 -6.54959996 50.42215391 -13.87109375 50.77734375 C-22.08637852 50.49928796 -29.29147261 47.18028921 -34.99609375 41.33984375 C-40.48457388 33.50420009 -40.87581076 25.70326843 -39.99609375 16.33984375 C-37.68599677 8.5704593 -33.15290889 3.33375629 -26.2265625 -0.6875 C-18.12091346 -4.39050177 -7.86798595 -4.07164651 0 0 Z " fill="#09B79A" transform="translate(307.99609375,212.66015625)"/>
<path d="M0 0 C4.49625 -0.061875 8.9925 -0.12375 13.625 -0.1875 C15.03217285 -0.21481201 16.4393457 -0.24212402 17.88916016 -0.27026367 C19.01112793 -0.27775635 20.1330957 -0.28524902 21.2890625 -0.29296875 C23.00150146 -0.31653442 23.00150146 -0.31653442 24.74853516 -0.34057617 C29.85149475 0.19393566 33.06224933 2.14560494 36.8125 5.5625 C39.90034327 9.60276247 40.39105967 14.02357398 40 19 C38.73261821 23.39507254 37.01932565 26.22337094 33.375 29 C31 30 31 30 29 30 C29.36351562 30.60062256 29.72703125 31.20124512 30.1015625 31.82006836 C31.73664892 34.52451178 33.36836619 37.2309723 35 39.9375 C35.57234375 40.88302734 36.1446875 41.82855469 36.734375 42.80273438 C37.27578125 43.70185547 37.8171875 44.60097656 38.375 45.52734375 C38.87773437 46.35999756 39.38046875 47.19265137 39.8984375 48.05053711 C41 50 41 50 41 51 C30.06346661 52.55288156 30.06346661 52.55288156 25 51 C21.10540169 47.13318057 19.22954593 43.01794902 17 38 C15.515 35.525 15.515 35.525 14 33 C13.67 38.94 13.34 44.88 13 51 C8.71 51 4.42 51 0 51 C0 34.17 0 17.34 0 0 Z M13 10 C13 13.63 13 17.26 13 21 C14.588125 21.061875 16.17625 21.12375 17.8125 21.1875 C18.70582031 21.22230469 19.59914063 21.25710937 20.51953125 21.29296875 C23.04046389 21.20628578 23.04046389 21.20628578 24.80078125 19.64453125 C26.50731102 17.30430639 26.42408618 15.8272412 26 13 C24.85047348 11.25595059 24.85047348 11.25595059 23 10 C20.48710325 9.63786432 20.48710325 9.63786432 17.8125 9.8125 C16.224375 9.874375 14.63625 9.93625 13 10 Z " fill="#06B89B" transform="translate(326,211)"/>
<path d="M0 0 C4.62 0 9.24 0 14 0 C14.33 5.94 14.66 11.88 15 18 C16.381875 16.329375 17.76375 14.65875 19.1875 12.9375 C19.96480469 11.99777344 20.74210937 11.05804688 21.54296875 10.08984375 C23.90385679 7.28442445 23.90385679 7.28442445 25.08911133 5.08227539 C27.89770555 0.29364348 27.89770555 0.29364348 31.08129883 -0.55444336 C33.52848238 -0.68925124 35.86832104 -0.61304877 38.3125 -0.4375 C39.14845703 -0.40591797 39.98441406 -0.37433594 40.84570312 -0.34179688 C42.89865506 -0.2596788 44.94978898 -0.13412595 47 0 C42.92267375 5.54944623 38.65571473 10.90143313 34.24609375 16.19140625 C31.69655419 19.3794392 29.34820745 22.66133598 27 26 C27.7734375 26.89460938 28.546875 27.78921875 29.34375 28.7109375 C47 49.18594252 47 49.18594252 47 51 C40.97587653 52.16794231 34.88815534 53.1808421 29 51 C22.92991197 45.91630128 18.95134614 38.75921591 15 32 C14.67 38.27 14.34 44.54 14 51 C9.38 51 4.76 51 0 51 C0 34.17 0 17.34 0 0 Z " fill="#05B89B" transform="translate(218,211)"/>
<path d="M0 0 C1.39456452 0.00667256 2.78911118 0.01863093 4.18359375 0.03515625 C4.89451172 0.03966797 5.60542969 0.04417969 6.33789062 0.04882812 C8.09899388 0.06064761 9.86005411 0.07858362 11.62109375 0.09765625 C15.81312877 9.5935321 19.21887288 19.30606911 22.55249023 29.12841797 C23.44429341 31.75415932 24.34380711 34.37717286 25.24414062 37 C25.81425426 38.67041866 26.3839323 40.34098606 26.953125 42.01171875 C27.35613579 43.18657333 27.35613579 43.18657333 27.76728821 44.38516235 C29.62109375 49.86693298 29.62109375 49.86693298 29.62109375 52.09765625 C25.00109375 52.09765625 20.38109375 52.09765625 15.62109375 52.09765625 C14.63109375 49.78765625 13.64109375 47.47765625 12.62109375 45.09765625 C6.68109375 44.76765625 0.74109375 44.43765625 -5.37890625 44.09765625 C-5.70890625 46.07765625 -6.03890625 48.05765625 -6.37890625 50.09765625 C-6.70890625 50.75765625 -7.03890625 51.41765625 -7.37890625 52.09765625 C-11.99890625 52.09765625 -16.61890625 52.09765625 -21.37890625 52.09765625 C-20.70821444 48.07350541 -20.13664379 45.0180207 -18.8125 41.30151367 C-18.49547119 40.40426071 -18.17844238 39.50700775 -17.85180664 38.58256531 C-17.51012451 37.63235001 -17.16844238 36.6821347 -16.81640625 35.703125 C-16.46505615 34.71516434 -16.11370605 33.72720367 -15.75170898 32.70930481 C-15.01102401 30.6299732 -14.26789055 28.55151235 -13.52246094 26.47387695 C-12.3773942 23.28094 -11.24085142 20.08506357 -10.10546875 16.88867188 C-9.38461393 14.86831135 -8.6632767 12.84812287 -7.94140625 10.828125 C-7.59972412 9.86778854 -7.25804199 8.90745209 -6.90600586 7.91801453 C-6.58897705 7.03652237 -6.27194824 6.15503021 -5.9453125 5.24682617 C-5.5268103 4.07817268 -5.5268103 4.07817268 -5.09985352 2.88591003 C-3.83877148 -0.24210616 -3.6828973 0.10644212 0 0 Z M3.62109375 18.09765625 C1.97109375 23.04765625 0.32109375 27.99765625 -1.37890625 33.09765625 C-0.37054563 34.33032973 -0.37054563 34.33032973 1.6875 34.1953125 C2.51121094 34.18371094 3.33492188 34.17210937 4.18359375 34.16015625 C5.42302734 34.14662109 5.42302734 34.14662109 6.6875 34.1328125 C7.32558594 34.12121094 7.96367187 34.10960937 8.62109375 34.09765625 C8.02000799 28.44745007 6.54580692 23.43601164 4.62109375 18.09765625 C4.29109375 18.09765625 3.96109375 18.09765625 3.62109375 18.09765625 Z " fill="#06B89B" transform="translate(391.37890625,209.90234375)"/>
<path d="M0 0 C6.117467 3.19904238 10.46871909 6.68394879 13.0625 13.3125 C13.0625 14.3025 13.0625 15.2925 13.0625 16.3125 C10.6446288 16.42076289 8.23162444 16.49989789 5.8125 16.5625 C4.78962891 16.61277344 4.78962891 16.61277344 3.74609375 16.6640625 C0.25152017 16.7319183 -1.49807855 16.69603684 -4.1796875 14.35546875 C-5.04980469 13.34419922 -5.04980469 13.34419922 -5.9375 12.3125 C-10.51999589 11.20383164 -12.79537576 10.92460875 -17.25 12.4375 C-20.41016589 14.6422669 -21.57894003 15.6896734 -22.9375 19.3125 C-23.58885867 24.57965963 -23.49700531 28.92589988 -21.5 33.875 C-17.99154742 37.21230855 -14.75974247 38.22072722 -9.9375 38.3125 C-5.5675748 36.83238333 -5.5675748 36.83238333 -2.9375 33.3125 C2.3425 33.3125 7.6225 33.3125 13.0625 33.3125 C11.90543011 39.09784943 10.6117202 42.48859869 5.71484375 45.9921875 C-1.97717018 50.72747737 -7.88272614 52.15312887 -16.9375 51.3125 C-24.07641011 49.59502308 -29.6134191 46.28821923 -33.9375 40.3125 C-38.00482122 33.34857019 -39.00977851 26.26880651 -37.9375 18.3125 C-35.74104161 10.89384972 -32.14426559 5.41813347 -25.375 1.5625 C-17.54283381 -2.61113325 -8.33500692 -3.52143393 0 0 Z " fill="#08B79A" transform="translate(197.9375,211.6875)"/>
<path d="M0 0 C5.83296585 5.19122501 8.68071429 10.04085724 9.3125 17.875 C9.11426115 23.35265235 7.92602483 27.83587939 4.23046875 31.98828125 C-1.25409161 37.05337237 -6.19485429 39.55760034 -13.85546875 39.30859375 C-20.6211662 38.33502344 -25.72285896 35.16681698 -29.84765625 29.78515625 C-33.41869553 24.25307168 -33.82990885 18.29744881 -32.60546875 11.95703125 C-30.81529479 5.98593487 -27.04774017 2.48419542 -22 -1 C-14.93799833 -4.3838758 -6.71458918 -4.03411446 0 0 Z " fill="#D0208A" transform="translate(128,139)"/>
<path d="M0 0 C4.99278241 3.40416983 7.7616872 7.08239901 9 13 C9.7488513 19.53096548 8.858766 24.60907691 5 30 C0.98200337 34.48543683 -2.94872208 37.0610086 -9 38 C-15.36306816 38.0792553 -19.82941522 36.67906994 -25 33 C-29.6378552 28.3621448 -31.9466993 24.1907675 -32.03125 17.54296875 C-31.60472806 10.43071534 -29.41786875 6.01186139 -24.0625 1.25 C-16.30809124 -4.44711664 -8.47542771 -4.56369184 0 0 Z " fill="#CE1E88" transform="translate(56,180)"/>
<path d="M0 0 C4.29 0 8.58 0 13 0 C13 13.53 13 27.06 13 41 C18.28 41 23.56 41 29 41 C29 44.3 29 47.6 29 51 C19.43 51 9.86 51 0 51 C0 34.17 0 17.34 0 0 Z " fill="#09B79A" transform="translate(105,211)"/>
<path d="M0 0 C2.18939607 2.18939607 4.36437967 4.38259866 6.5 6.625 C10.95841149 10.86049091 14.44543099 11.45434183 20.46484375 11.3125 C25.01335554 10.75182058 28.33993955 9.01965811 31.31640625 5.3984375 C32.28225979 3.97826261 33.15154409 2.4932824 34 1 C36.95845268 2.37050815 39.38501339 3.97822843 41.9375 6 C44.8484605 8.23082954 47.46102751 9.8940711 51 11 C47.8745041 13.64465038 44.91211733 14.84414715 41 16 C41.61875 16.12375 42.2375 16.2475 42.875 16.375 C45.70422422 17.20712477 46.93690484 18.93690484 49 21 C51.36509361 21.30059943 53.74441881 21.49515012 56.125 21.625 C57.40632813 21.69976562 58.68765625 21.77453125 60.0078125 21.8515625 C61.48894531 21.92503906 61.48894531 21.92503906 63 22 C63 22.33 63 22.66 63 23 C62.03320312 23.09796875 61.06640625 23.1959375 60.0703125 23.296875 C44.11422379 25.12945548 34.1216142 30.37157806 23 42 C22.0022962 43.00229094 21.0030075 44.00301657 20 45 C20.0721875 44.3709375 20.144375 43.741875 20.21875 43.09375 C20.35796875 41.80984375 20.35796875 41.80984375 20.5 40.5 C20.60441406 39.58476562 20.70882812 38.66953125 20.81640625 37.7265625 C20.98107501 35.28105626 20.77792695 33.28196235 20.4375 30.875 C21.1246839 26.14106646 22.2595564 25.45667554 25.875 22.5 C30.6 19 30.6 19 33 19 C33 18.34 33 17.68 33 17 C35.31 16.01 37.62 15.02 40 14 C33.73256093 12.63356354 33.73256093 12.63356354 28 14.9375 C26.515 15.9584375 26.515 15.9584375 25 17 C21.96844434 17.34517713 19.03704198 17.24296336 16 17 C16 19.31 16 21.62 16 24 C15.01 22.68 14.02 21.36 13 20 C12.67 24.29 12.34 28.58 12 33 C11.67 33 11.34 33 11 33 C10.98582031 32.09378906 10.97164062 31.18757813 10.95703125 30.25390625 C10.6174798 21.58157865 9.74610192 14.72283671 3.40625 8.4140625 C1.98916494 7.2123188 0.4983339 6.09877819 -1 5 C-1.66 4.34 -2.32 3.68 -3 3 C-2.01 2.01 -1.02 1.02 0 0 Z " fill="#6AD06C" transform="translate(59,171)"/>
<path d="M0 0 C4.29 0 8.58 0 13 0 C13 16.83 13 33.66 13 51 C8.71 51 4.42 51 0 51 C0 34.17 0 17.34 0 0 Z " fill="#01BA9B" transform="translate(140,211)"/>
<path d="M0 0 C7.88460771 1.12637253 7.88460771 1.12637253 10.90234375 2.453125 C11.56169922 2.74050537 12.22105469 3.02788574 12.90039062 3.32397461 C13.90875977 3.78235718 13.90875977 3.78235718 14.9375 4.25 C15.63681641 4.56138916 16.33613281 4.87277832 17.05664062 5.19360352 C21.98234643 7.42864826 26.53559594 9.93072221 31 13 C30.44402971 16.96470618 28.546654 18.9775899 25.8125 21.8125 C25.05582031 22.62332031 24.29914063 23.43414062 23.51953125 24.26953125 C21 26 21 26 17.88671875 25.88671875 C15 25 15 25 12 23 C10.00945124 22.30562253 8.00744615 21.64389782 6 21 C3.36 20.01 0.72 19.02 -2 18 C-1.34 12.06 -0.68 6.12 0 0 Z " fill="#04B899" transform="translate(142,152)"/>
<path d="M0 0 C3.50252011 2.04313673 5.77361702 4.09787233 7 8 C7.4540225 12.99424753 7.19207216 16.06311101 4 20 C1.35476346 22.39330925 -0.60016108 23.87408856 -4.21484375 24.19921875 C-8.53780627 23.94746553 -10.57045514 23.3490052 -14 20.5625 C-17.04086986 16.66638549 -17.39064823 14.1754763 -17.359375 9.328125 C-16.75455722 5.40995764 -14.83123243 3.69641184 -12 1 C-8.29778834 -0.85110583 -4.04093083 -0.46454795 0 0 Z " fill="#951B61" transform="translate(82,154)"/>
<path d="M0 0 C3.33936502 2.34162791 5.5137003 5.03972215 6.50390625 9.03125 C6.80558722 14.09170496 5.16280508 17.20463391 2 21 C-2.2432447 23.8288298 -6.01734529 23.65268001 -11 23 C-14.49996383 20.95835443 -16.80555258 18.90910064 -18 15 C-18.86284183 8.42083103 -18.86284183 8.42083103 -16.76171875 4.9609375 C-11.93586765 -0.85882338 -7.32825454 -2.20595417 0 0 Z " fill="#AF1B72" transform="translate(85,118)"/>
<path d="M0 0 C3.07933335 2.01099321 4.49196824 3.41519652 5.62109375 6.9375 C6.24070841 10.31024781 6.1452985 12.65587196 4.8125 15.8125 C0.73551637 20.73299748 0.73551637 20.73299748 -3.08203125 21.3203125 C-7.2192992 21.52614673 -9.42008631 21.36244605 -13 19.125 C-16.32530877 15.59185943 -16.33074386 12.95338737 -16.29296875 8.26171875 C-15.86344199 4.9457722 -14.39075646 3.25012373 -12 1 C-8.26992673 -0.86503664 -4.06217389 -0.54928766 0 0 Z " fill="#B71978" transform="translate(16,250)"/>
<path d="M0 0 C4.145697 -0.0879568 8.29115012 -0.14071153 12.4375 -0.1875 C13.60216797 -0.21263672 14.76683594 -0.23777344 15.96679688 -0.26367188 C25.57914428 -0.34490298 32.55834063 1.45449111 41 6 C37.95249102 9.52869461 34.73206113 10.81928359 30.1171875 11.30078125 C19.85992913 11.33785568 10.0756988 9.80460277 0 8 C-0.33 8.66 -0.66 9.32 -1 10 C-4 5.25 -4 5.25 -4 3 C-2.68 3 -1.36 3 0 3 C0 2.01 0 1.02 0 0 Z " fill="#32C186" transform="translate(108,184)"/>
<path d="M0 0 C2.18939607 2.18939607 4.36437967 4.38259866 6.5 6.625 C10.95841149 10.86049091 14.44543099 11.45434183 20.46484375 11.3125 C25.01335554 10.75182058 28.33993955 9.01965811 31.31640625 5.3984375 C32.28225979 3.97826261 33.15154409 2.4932824 34 1 C36.95845268 2.37050815 39.38501339 3.97822843 41.9375 6 C44.8484605 8.23082954 47.46102751 9.8940711 51 11 C49.4921875 12.53515625 49.4921875 12.53515625 47 14 C43.59734737 13.93859332 40.3828067 13.6090191 37.01953125 13.15039062 C31.58246408 12.58210959 29.31563586 13.84765704 25 17 C22.4453125 17.390625 22.4453125 17.390625 20.125 17.25 C19.34382813 17.21390625 18.56265625 17.1778125 17.7578125 17.140625 C17.17773438 17.09421875 16.59765625 17.0478125 16 17 C16 19.31 16 21.62 16 24 C15.01 22.68 14.02 21.36 13 20 C12.67 24.29 12.34 28.58 12 33 C11.67 33 11.34 33 11 33 C10.98582031 32.09378906 10.97164062 31.18757813 10.95703125 30.25390625 C10.6174798 21.58157865 9.74610192 14.72283671 3.40625 8.4140625 C1.98916494 7.2123188 0.4983339 6.09877819 -1 5 C-1.66 4.34 -2.32 3.68 -3 3 C-2.01 2.01 -1.02 1.02 0 0 Z " fill="#7BBD67" transform="translate(59,171)"/>
<path d="M0 0 C4.99278241 3.40416983 7.7616872 7.08239901 9 13 C9.7393319 19.44794381 8.83124543 24.65675804 5 30 C4.01 30.66 3.02 31.32 2 32 C2.020625 31.278125 2.04125 30.55625 2.0625 29.8125 C1.98356357 26.26036058 1.27689187 23.05218911 0.375 19.625 C0 17 0 17 0.5625 13.5 C1.02491282 9.80069744 0.82763393 8.19835937 -1 5 C-4.14611253 2.90259164 -4.91188078 2.74671781 -8.5 2.8125 C-9.66015625 2.82216797 -9.66015625 2.82216797 -10.84375 2.83203125 C-13.18348849 2.9269435 -13.18348849 2.9269435 -16 4 C-16.33 4.99 -16.66 5.98 -17 7 C-17.33 6.34 -17.66 5.68 -18 5 C-22.96551325 4.64393187 -22.96551325 4.64393187 -27.4375 6.5 C-27.953125 6.995 -28.46875 7.49 -29 8 C-27.16907136 3.05649268 -23.15314645 0.22205609 -18.6875 -2.3125 C-11.87459159 -4.05533704 -6.22762777 -3.35333803 0 0 Z " fill="#A21C6B" transform="translate(56,180)"/>
<path d="M0 0 C2.61497941 0.44828218 4.92344056 0.96776444 7.375 2 C10.5549405 3.21140591 13.63492214 3.55867831 17 4 C16.95456055 5.07314453 16.95456055 5.07314453 16.90820312 6.16796875 C16.77041347 9.44524269 16.63518745 12.72261773 16.5 16 C16.45230469 17.12535156 16.40460937 18.25070313 16.35546875 19.41015625 C16.11520944 25.27934786 15.94241112 31.12593378 16 37 C15.34 36.67 14.68 36.34 14 36 C13.20240059 33.20840208 13.00206559 30.96763904 13.1875 28.0625 C12.93991697 24.01864379 11.54013223 22.10460605 9 19 C5.69678862 16.60801935 1.98366713 16.4596539 -2 16 C-1.85890014 13.89551062 -1.71195825 11.7914123 -1.5625 9.6875 C-1.48128906 8.51574219 -1.40007813 7.34398437 -1.31640625 6.13671875 C-1 3 -1 3 0 0 Z " fill="#8BD25F" transform="translate(30,219)"/>
<path d="M0 0 C5.83296585 5.19122501 8.68071429 10.04085724 9.3125 17.875 C9.18624936 22.26010569 8.11470738 26.15105561 6 30 C3.8125 32 3.8125 32 2 33 C2.309375 32.443125 2.61875 31.88625 2.9375 31.3125 C4.0791156 28.82780722 4.71368297 26.72001179 5 24 C4.34 23.34 3.68 22.68 3 22 C4.32 21.67 5.64 21.34 7 21 C7 18.36 7 15.72 7 13 C6.34 13 5.68 13 5 13 C5 12.34 5 11.68 5 11 C4.01 11 3.02 11 2 11 C1.71125 11.969375 1.4225 12.93875 1.125 13.9375 C0 17 0 17 -2 18 C-1.97679688 17.38511719 -1.95359375 16.77023438 -1.9296875 16.13671875 C-1.91164063 15.32847656 -1.89359375 14.52023438 -1.875 13.6875 C-1.85179688 12.88699219 -1.82859375 12.08648437 -1.8046875 11.26171875 C-1.84182678 8.71611424 -1.84182678 8.71611424 -4 6 C-8.02940851 4.65686383 -12.00952635 4.41456657 -16.125 5.625 C-18.83466026 6.16693205 -20.55956038 5.15242982 -23 4 C-23.20625 4.61875 -23.4125 5.2375 -23.625 5.875 C-25.54775888 8.84653645 -27.66594527 9.13024659 -31 10 C-29.60954181 4.74715794 -26.31099439 2.00408241 -22 -1 C-14.88276633 -4.33147108 -6.74787331 -4.05411151 0 0 Z " fill="#A2186B" transform="translate(128,139)"/>
<path d="M0 0 C7.88460771 1.12637253 7.88460771 1.12637253 10.90234375 2.453125 C11.56169922 2.74050537 12.22105469 3.02788574 12.90039062 3.32397461 C13.90875977 3.78235718 13.90875977 3.78235718 14.9375 4.25 C15.63681641 4.56138916 16.33613281 4.87277832 17.05664062 5.19360352 C21.98234643 7.42864826 26.53559594 9.93072221 31 13 C30.43040847 16.62613199 29.07625466 18.25517741 26.4375 20.75 C25.47650391 21.67039063 25.47650391 21.67039063 24.49609375 22.609375 C24.00238281 23.06828125 23.50867188 23.5271875 23 24 C21.68 22.35 20.36 20.7 19 19 C20.875 14.25 20.875 14.25 22 12 C21.34 11.67 20.68 11.34 20 11 C19.525625 10.505 19.05125 10.01 18.5625 9.5 C16.9622647 7.74916008 16.9622647 7.74916008 14 7 C14 6.34 14 5.68 14 5 C9.92035719 6.30155006 9.92035719 6.30155006 6 8 C6.33 6.68 6.66 5.36 7 4 C5.48613977 5.51386023 5.16198378 7.29013954 4.5 9.3125 C4.2421875 10.09238281 3.984375 10.87226563 3.71875 11.67578125 C3.07048133 13.77208484 2.50788006 15.86592705 2 18 C0.68 18 -0.64 18 -2 18 C-1.34 12.06 -0.68 6.12 0 0 Z " fill="#0EB396" transform="translate(142,152)"/>
<path d="M0 0 C3 0.5625 3 0.5625 5.3125 2.9375 C8.00995126 7.13353529 8.3422656 9.51408235 8 14.5625 C6.68033 17.5317575 5.67383567 19.09923798 3 20.9375 C1 21.5625 1 21.5625 -2 20.5625 C-3.4346648 17.6931704 -3.32761065 14.8307063 -3.5234375 11.65625 C-3.83558965 9.1750791 -3.83558965 9.1750791 -7 7.5625 C-7 4.5625 -7 4.5625 -5.375 2.375 C-3 0.5625 -3 0.5625 0 0 Z " fill="#D8208E" transform="translate(81,154.4375)"/>
<path d="M0 0 C3.0625 2.125 3.0625 2.125 5 5 C5.375 8.75 5.375 8.75 5 12 C3.11940967 13.88059033 0.50109962 13.12361218 -1.9921875 13.1328125 C-4 13 -4 13 -7 12 C-7 11.34 -7 10.68 -7 10 C-7.94875 9.731875 -8.8975 9.46375 -9.875 9.1875 C-13 8 -13 8 -15 5 C-11.36403625 -1.75250411 -7.02799578 -1.77238422 0 0 Z " fill="#EB249C" transform="translate(85,118)"/>
<path d="M0 0 C0.66 0 1.32 0 2 0 C2.33 1.32 2.66 2.64 3 4 C5.97 4.495 5.97 4.495 9 5 C9 7.31 9 9.62 9 12 C9.66 12 10.32 12 11 12 C11 12.66 11 13.32 11 14 C11.66 14 12.32 14 13 14 C13.33 12.68 13.66 11.36 14 10 C14.33 10.66 14.66 11.32 15 12 C15.66 12 16.32 12 17 12 C16.67 14.31 16.34 16.62 16 19 C16.53109375 19.38671875 17.0621875 19.7734375 17.609375 20.171875 C23.69026549 24.65486726 23.69026549 24.65486726 26.1875 27.4375 C27.0846875 28.2109375 27.0846875 28.2109375 28 29 C30.70705512 28.85974801 30.70705512 28.85974801 33 28 C33.495 31.465 33.495 31.465 34 35 C35.11375 35.12375 36.2275 35.2475 37.375 35.375 C41 36 41 36 43 38 C43.99 38 44.98 38 46 38 C46.495 37.01 46.495 37.01 47 36 C47.99 36.495 47.99 36.495 49 37 C48.67 38.65 48.34 40.3 48 42 C37.84305004 40.53288501 28.62623062 33.53286422 21 27 C20.17757812 26.32195312 19.35515625 25.64390625 18.5078125 24.9453125 C10.85345518 18.40770032 4.89358177 10.79946813 0 2 C0 1.34 0 0.68 0 0 Z " fill="#D7E649" transform="translate(39,284)"/>
<path d="M0 0 C3.06799083 3.06799083 3.91517481 5.06692291 4.3125 9.4375 C3.97442585 13.29154535 3.00861573 14.78621483 1 18 C0.87625 19.155 0.7525 20.31 0.625 21.5 C-0.15154375 25.84864499 -1.78071525 27.09479181 -5 30 C-6.29519995 32.16620544 -6.29519995 32.16620544 -7 34 C-9.66666667 34 -12.33333333 34 -15 34 C-15.33 33.34 -15.66 32.68 -16 32 C-15 29 -15 29 -12.25 27.3125 C-7.47475564 23.91472998 -4.84306472 19.52919416 -3 14 C-2.34 14 -1.68 14 -1 14 C-1.01160156 13.07316406 -1.02320312 12.14632812 -1.03515625 11.19140625 C-1.04417969 9.99386719 -1.05320312 8.79632813 -1.0625 7.5625 C-1.07410156 6.36753906 -1.08570312 5.17257813 -1.09765625 3.94140625 C-1 1 -1 1 0 0 Z " fill="#9FD252" transform="translate(72,190)"/>
<path d="M0 0 C2.4375 1.625 2.4375 1.625 4 4 C4.60605429 7.63632575 4.47161336 9.28314769 2.4375 12.375 C-0.8994213 14.5996142 -3.06905293 14.50030235 -7 14 C-8.9375 13 -8.9375 13 -10 11 C-10.52960415 7.41957756 -10.65886567 4.24021772 -8.9375 1 C-5.82090489 -0.60856522 -3.43737531 -0.42213381 0 0 Z " fill="#C92585" transform="translate(10,206)"/>
<path d="M0 0 C3.18191841 5.14002205 3.18191841 5.14002205 2.3125 9.25 C1 12 1 12 -1 14 C-7.07894737 14.55263158 -7.07894737 14.55263158 -9.875 12.875 C-11.53173428 10.11377619 -12 8.23421175 -12 5 C-8.55194572 0.04342198 -5.87829674 -0.5763036 0 0 Z " fill="#C22481" transform="translate(36,240)"/>
<path d="M0 0 C8.86133603 -0.7742915 8.86133603 -0.7742915 13.125 2.125 C15.27280781 5.41830531 15.44823695 7.14516221 15 11 C13.34765625 12.10546875 13.34765625 12.10546875 11 13 C8.30859375 12.42578125 8.30859375 12.42578125 5.4375 11.3125 C4.48746094 10.95800781 3.53742187 10.60351562 2.55859375 10.23828125 C0.140511 9.06800303 -1.27014891 8.02107182 -3 6 C-2 4 -1 2 0 0 Z " fill="#EB269D" transform="translate(6,250)"/>
<path d="M0 0 C2.93230193 1.32120828 4.98664899 2.74638197 7.234375 5.0390625 C7.80800781 5.61914062 8.38164062 6.19921875 8.97265625 6.796875 C9.55917969 7.40015625 10.14570313 8.0034375 10.75 8.625 C11.35199219 9.23601562 11.95398438 9.84703125 12.57421875 10.4765625 C14.05405305 11.97988624 15.52764676 13.48934856 17 15 C15.04334413 15.4993126 13.11764963 15.98039173 11.125 16.3125 C8.76497013 16.96404057 8.76497013 16.96404057 6.1875 18.9375 C1.46742587 21.99166561 -3.52426135 23.00441115 -9 24 C-9.33 23.34 -9.66 22.68 -10 22 C-9.0925 21.7525 -8.185 21.505 -7.25 21.25 C-3.86017545 19.94622133 -2.47336814 18.5586567 0 16 C0.99 16 1.98 16 3 16 C3 14.02 3 12.04 3 10 C3.66 10 4.32 10 5 10 C4.67 8.02 4.34 6.04 4 4 C2.68 3.67 1.36 3.34 0 3 C0 2.01 0 1.02 0 0 Z " fill="#A1DB58" transform="translate(150,289)"/>
<path d="M0 0 C0 1.98 0 3.96 0 6 C-0.99 6.495 -0.99 6.495 -2 7 C-1.67 7.99 -1.34 8.98 -1 10 C-5.95 10 -10.9 10 -16 10 C-16 8 -16 6 -16 4 C-15.34 4 -14.68 4 -14 4 C-14 2.68 -14 1.36 -14 0 C-12.2300132 -0.19532961 -10.45895721 -0.38098882 -8.6875 -0.5625 C-7.70136719 -0.66691406 -6.71523437 -0.77132812 -5.69921875 -0.87890625 C-3 -1 -3 -1 0 0 Z " fill="#01BA9B" transform="translate(196,251)"/>
<path d="M0 0 C2.15347223 2.15347223 4.27122006 4.30054115 6.3125 6.5625 C11.38691708 11.16487828 17.48786024 12.51477514 24 14 C23.67 14.99 23.34 15.98 23 17 C20.69 17 18.38 17 16 17 C16 19.31 16 21.62 16 24 C15.01 22.68 14.02 21.36 13 20 C12.67 24.29 12.34 28.58 12 33 C11.67 33 11.34 33 11 33 C10.98582031 32.09378906 10.97164062 31.18757813 10.95703125 30.25390625 C10.6174798 21.58157865 9.74610192 14.72283671 3.40625 8.4140625 C1.98916494 7.2123188 0.4983339 6.09877819 -1 5 C-1.66 4.34 -2.32 3.68 -3 3 C-2.01 2.01 -1.02 1.02 0 0 Z " fill="#7EC65E" transform="translate(59,171)"/>
<path d="M0 0 C1.54163175 3.0832635 1.29747535 5.60878099 1 9 C-0.5625 11 -0.5625 11 -3 12 C-9.32727273 11.67272727 -9.32727273 11.67272727 -12 9 C-12.56321839 2.8045977 -12.56321839 2.8045977 -10.6875 0.125 C-6.63272861 -2.57818093 -4.29206169 -1.77280809 0 0 Z " fill="#C72686" transform="translate(124,106)"/>
<path d="M0 0 C0.33 0 0.66 0 1 0 C1.33 16.5 1.66 33 2 50 C4.97 50 7.94 50 11 50 C11.33 36.47 11.66 22.94 12 9 C11.34 9 10.68 9 10 9 C10.66 6.03 11.32 3.06 12 0 C12.33 0 12.66 0 13 0 C13 16.83 13 33.66 13 51 C8.71 51 4.42 51 0 51 C0 34.17 0 17.34 0 0 Z " fill="#16B8A1" transform="translate(140,211)"/>
<path d="M0 0 C0.20625 0.598125 0.4125 1.19625 0.625 1.8125 C2.50926082 4.81018767 4.81132084 5.61361776 8 7 C8 7.66 8 8.32 8 9 C8.99 8.67 9.98 8.34 11 8 C11 8.66 11 9.32 11 10 C13.64 9.67 16.28 9.34 19 9 C19.33 7.35 19.66 5.7 20 4 C20.33 4 20.66 4 21 4 C21.3090379 13.27113703 21.3090379 13.27113703 19 16 C15.875 17.25 15.875 17.25 13 18 C11.5 16.6875 11.5 16.6875 10 15 C10 14.01 10 13.02 10 12 C9.34 12 8.68 12 8 12 C8 11.34 8 10.68 8 10 C6.02 10.33 4.04 10.66 2 11 C-0.31309135 8.49415104 -0.97826344 7.27714111 -1.25 3.8125 C-1 1 -1 1 0 0 Z " fill="#C51E82" transform="translate(70,121)"/>
<path d="M0 0 C2.97 0 5.94 0 9 0 C7.68 0.33 6.36 0.66 5 1 C3.71563266 2.9837767 3.71563266 2.9837767 3 5 C2.34 5 1.68 5 1 5 C1 5.99 1 6.98 1 8 C1.64453125 8.21398437 2.2890625 8.42796875 2.953125 8.6484375 C5 10 5 10 5.609375 12.6015625 C5.65578125 13.59929687 5.7021875 14.59703125 5.75 15.625 C5.80671875 16.62789062 5.8634375 17.63078125 5.921875 18.6640625 C5.94765625 19.43492187 5.9734375 20.20578125 6 21 C6.99 21 7.98 21 9 21 C9 21.66 9 22.32 9 23 C4.42411796 23.31924758 1.55964352 23.03616654 -2 20 C-2.375 17.375 -2.375 17.375 -2 15 C-1.67 14.67 -1.34 14.34 -1 14 C-0.76472227 11.65012738 -0.58613583 9.29443961 -0.4375 6.9375 C-0.35371094 5.64714844 -0.26992187 4.35679687 -0.18359375 3.02734375 C-0.12300781 2.02832031 -0.06242187 1.02929688 0 0 Z " fill="#B11C75" transform="translate(73,154)"/>
<path d="M0 0 C0.515625 0.680625 1.03125 1.36125 1.5625 2.0625 C8.43707734 10.34724705 15.84335212 16.15059431 26 20 C26 21.32 26 22.64 26 24 C25.34 23.67 24.68 23.34 24 23 C22.68 23 21.36 23 20 23 C18.25 21.625 18.25 21.625 17 20 C17 19.34 17 18.68 17 18 C15.68 17.67 14.36 17.34 13 17 C13 16.34 13 15.68 13 15 C12.21625 15.04125 11.4325 15.0825 10.625 15.125 C8 15 8 15 6 13 C5.01 14.485 5.01 14.485 4 16 C2.06757715 12.65479742 1.4536147 9.55232518 0.875 5.75 C0.70742187 4.67234375 0.53984375 3.5946875 0.3671875 2.484375 C0.24601562 1.66453125 0.12484375 0.8446875 0 0 Z " fill="#D5E44A" transform="translate(79,264)"/>
<path d="M0 0 C0.99 0.33 1.98 0.66 3 1 C4.58299127 7.13409117 5.15474677 12.8444727 2.125 18.5 C0 21 0 21 -2 22 C-1.979375 21.278125 -1.95875 20.55625 -1.9375 19.8125 C-2.01841297 16.17141624 -2.76717118 12.88898278 -3.6875 9.375 C-4 7 -4 7 -2 4 C-1.31822584 2.67432801 -0.64808564 1.34246312 0 0 Z " fill="#AA186F" transform="translate(60,190)"/>
<path d="M0 0 C3.0625 2.125 3.0625 2.125 5 5 C5.375 8.75 5.375 8.75 5 12 C3.11940967 13.88059033 0.50109962 13.12361218 -1.9921875 13.1328125 C-4 13 -4 13 -7 12 C-7 11.34 -7 10.68 -7 10 C-7.94875 9.731875 -8.8975 9.46375 -9.875 9.1875 C-13 8 -13 8 -15 5 C-11.36403625 -1.75250411 -7.02799578 -1.77238422 0 0 Z M-9 1 C-9.66 2.65 -10.32 4.3 -11 6 C-7.77208445 8.1519437 -6.71599191 8.20086443 -3 8 C-2.67 9.32 -2.34 10.64 -2 12 C0.86724686 11.42655063 1.8614515 11.1385485 4 9 C3.61121812 5.98694043 2.73543126 4.60314689 1 2 C-2.47325181 0.8422494 -5.36067448 0.93133348 -9 1 Z " fill="#D92590" transform="translate(85,118)"/>
<path d="M0 0 C0.66 0.33 1.32 0.66 2 1 C2 1.66 2 2.32 2 3 C2.66 3 3.32 3 4 3 C2.8829081 6.01614813 1.3874224 7.64508669 -1.0625 9.625 C-4.00824713 11.67119397 -4.00824713 11.67119397 -5 14 C-8.96 14 -12.92 14 -17 14 C-15.41623174 12.94415449 -13.82214558 11.89874812 -12.16796875 10.95703125 C-7.07071529 8.01128122 -3.55729127 4.67568209 0 0 Z " fill="#62A56E" transform="translate(139,169)"/>
<path d="M0 0 C0.92232422 0.29003906 0.92232422 0.29003906 1.86328125 0.5859375 C-22.26394571 12.61575934 -22.26394571 12.61575934 -35.13671875 11.5859375 C-35.13671875 11.2559375 -35.13671875 10.9259375 -35.13671875 10.5859375 C-33.48671875 10.5859375 -31.83671875 10.5859375 -30.13671875 10.5859375 C-29.80671875 9.9259375 -29.47671875 9.2659375 -29.13671875 8.5859375 C-26.48811448 7.99238136 -23.84474553 7.84384481 -21.13671875 7.5859375 C-20.80671875 5.6059375 -20.47671875 3.6259375 -20.13671875 1.5859375 C-19.14671875 1.5859375 -18.15671875 1.5859375 -17.13671875 1.5859375 C-16.80671875 2.2459375 -16.47671875 2.9059375 -16.13671875 3.5859375 C-11.05281431 3.26473221 -4.08035372 -0.7907084 0 0 Z " fill="#87CE69" transform="translate(165.13671875,319.4140625)"/>
<path d="M0 0 C3.00519893 3.00519893 3.87632945 5.06363723 4.4375 9.3125 C3.89821601 13.85789362 2.23669747 16.77311071 -1 20 C-1.66 20 -2.32 20 -3 20 C-3 20.66 -3 21.32 -3 22 C-4.98 22.99 -4.98 22.99 -7 24 C-5.66666667 20.66666667 -4.33333333 17.33333333 -3 14 C-2.34 14 -1.68 14 -1 14 C-1.01160156 13.07316406 -1.02320312 12.14632812 -1.03515625 11.19140625 C-1.04417969 9.99386719 -1.05320312 8.79632813 -1.0625 7.5625 C-1.07410156 6.36753906 -1.08570312 5.17257813 -1.09765625 3.94140625 C-1 1 -1 1 0 0 Z " fill="#8AC85F" transform="translate(72,190)"/>
<path d="M0 0 C6.83532451 2.2784415 11.73736768 5.47473536 15 12 C15.9209878 14.9822462 16.10828909 17.63634193 16.0625 20.75 C16.05347656 21.54921875 16.04445313 22.3484375 16.03515625 23.171875 C16.02355469 23.77515625 16.01195313 24.3784375 16 25 C15.67 25 15.34 25 15 25 C14.90203125 24.33613281 14.8040625 23.67226562 14.703125 22.98828125 C13.78522006 17.56789432 12.93387043 14.0495725 9 10 C8.360625 9.113125 7.72125 8.22625 7.0625 7.3125 C3.340246 3.1390637 -0.91330751 2.73099071 -6.3125 2.375 C-7.91544922 2.26285156 -7.91544922 2.26285156 -9.55078125 2.1484375 C-10.35902344 2.09945312 -11.16726562 2.05046875 -12 2 C-7.93063023 -0.71291318 -4.77493154 -0.51728425 0 0 Z " fill="#86245E" transform="translate(49,177)"/>
<path d="M0 0 C0.2475 0.556875 0.495 1.11375 0.75 1.6875 C3.18053689 6.18399325 4.79660169 8.57881059 9.75 10.3125 C11.35875 10.6528125 11.35875 10.6528125 13 11 C13 11.33 13 11.66 13 12 C10.69 12 8.38 12 6 12 C6.33 12.33 6.66 12.66 7 13 C6.34 13.66 5.68 14.32 5 15 C4.01 15 3.02 15 2 15 C2.33 14.01 2.66 13.02 3 12 C2.34 11.071875 1.68 10.14375 1 9.1875 C-1 6 -1 6 -0.75 2.625 C-0.5025 1.75875 -0.255 0.8925 0 0 Z M-8 13 C-7.38125 13.165 -6.7625 13.33 -6.125 13.5 C-4.03936614 14.07634644 -4.03936614 14.07634644 -2 14 C-1.01 14 -0.02 14 1 14 C1.33 14.66 1.66 15.32 2 16 C1.34 16 0.68 16 0 16 C0 17.32 0 18.64 0 20 C-3.33727786 18.82744291 -5.77437487 17.81131596 -8 15 C-8 14.34 -8 13.68 -8 13 Z " fill="#10B196" transform="translate(281,239)"/>
<path d="M0 0 C2.31 0.33 4.62 0.66 7 1 C6.01 1.495 6.01 1.495 5 2 C4.60569359 3.89058205 4.60569359 3.89058205 4.5 6.125 C4.13068259 10.3217887 3.27908891 13.99218807 2 18 C0.68 18 -0.64 18 -2 18 C-1.34 12.06 -0.68 6.12 0 0 Z " fill="#179A89" transform="translate(142,152)"/>
<path d="M0 0 C5.875 0.875 5.875 0.875 7 2 C7.25 4.9375 7.25 4.9375 7 8 C4 10 4 10 1.4375 9.9375 C-1 9 -1 9 -2.5 6.6875 C-3 4 -3 4 -1.625 1.6875 C-0.820625 0.8521875 -0.820625 0.8521875 0 0 Z " fill="#CD2988" transform="translate(157,122)"/>
<path d="M0 0 C0.51046875 0.31710938 1.0209375 0.63421875 1.546875 0.9609375 C4.80214659 2.33976273 7.72843132 2.4293573 11.25 2.625 C12.51328125 2.69976562 13.7765625 2.77453125 15.078125 2.8515625 C16.04234375 2.90054688 17.0065625 2.94953125 18 3 C18 3.33 18 3.66 18 4 C17.01 4.12117187 16.02 4.24234375 15 4.3671875 C6.52229141 5.38177254 6.52229141 5.38177254 -1.8125 7.1875 C-5 8 -5 8 -7 7 C-7.625 4.4375 -7.625 4.4375 -8 2 C-5.36 2 -2.72 2 0 2 C0 1.34 0 0.68 0 0 Z " fill="#58C976" transform="translate(104,190)"/>
<path d="M0 0 C2.4375 1 2.4375 1 3.9375 3.3125 C4.4375 6 4.4375 6 3.0625 8.3125 C2.52625 8.869375 1.99 9.42625 1.4375 10 C-1.5325 9.505 -1.5325 9.505 -4.5625 9 C-5.89091008 3.56559513 -5.89091008 3.56559513 -4.4375 1.0625 C-2.5625 0 -2.5625 0 0 0 Z " fill="#BC2C7E" transform="translate(46.5625,147)"/>
<path d="M0 0 C0.33 0 0.66 0 1 0 C1.31785906 3.49644963 1.39644605 5.397402 -0.5625 8.375 C-3.8994213 10.5996142 -6.06905293 10.50030235 -10 10 C-11.9375 8.8125 -11.9375 8.8125 -13 7 C-13 5.35 -13 3.7 -13 2 C-7.555 3.485 -7.555 3.485 -2 5 C-1.34 3.35 -0.68 1.7 0 0 Z " fill="#BC207E" transform="translate(13,210)"/>
<path d="M0 0 C5.841744 -0.35050464 9.8531808 -0.16727335 15 3 C13.19386292 5.32042696 12.33747041 5.9533659 9.37109375 6.36328125 C8.40300781 6.34652344 7.43492187 6.32976562 6.4375 6.3125 C5.46683594 6.30863281 4.49617187 6.30476562 3.49609375 6.30078125 C1 6 1 6 -1 4 C-0.625 1.875 -0.625 1.875 0 0 Z " fill="#1CBD8F" transform="translate(134,187)"/>
<path d="M0 0 C0.66 0.33 1.32 0.66 2 1 C2.33 1.99 2.66 2.98 3 4 C6.51190809 5.22969878 6.51190809 5.22969878 10 6 C9.67 6.99 9.34 7.98 9 9 C10.65 9.33 12.3 9.66 14 10 C13.67 10.66 13.34 11.32 13 12 C11.20739868 11.94004678 9.41574205 11.8512759 7.625 11.75 C6.12839844 11.68039063 6.12839844 11.68039063 4.6015625 11.609375 C2 11 2 11 0.7734375 9.140625 C0.39058594 8.08101562 0.39058594 8.08101562 0 7 C-0.66 6.01 -1.32 5.02 -2 4 C-2 3.01 -2 2.02 -2 1 C-1.34 0.67 -0.68 0.34 0 0 Z " fill="#EC279E" transform="translate(102,164)"/>
<path d="M0 0 C7.26 0 14.52 0 22 0 C19.16858829 2.83141171 17.15340424 3.90753961 13.125 4.23046875 C12.09375 4.21628906 11.0625 4.20210937 10 4.1875 C8.453125 4.17783203 8.453125 4.17783203 6.875 4.16796875 C4.41931318 4.02449792 2.34492245 3.7046041 0 3 C0 2.01 0 1.02 0 0 Z " fill="#3FAC7C" transform="translate(108,184)"/>
<path d="M0 0 C2.475 0.99 2.475 0.99 5 2 C5 1.34 5 0.68 5 0 C9.3177458 0.50797009 13.03302114 1.19682779 17 3 C14.35684192 5.64997034 13.14884659 5.9969914 9.328125 6.07421875 C7.96727774 5.96191582 6.60775103 5.832515 5.25 5.6875 C4.55261719 5.62626953 3.85523437 5.56503906 3.13671875 5.50195312 C1.42310319 5.34937092 -0.2886995 5.17666411 -2 5 C-1.34 3.35 -0.68 1.7 0 0 Z " fill="#71B36A" transform="translate(93,179)"/>
<path d="M0 0 C2.5 1 2.5 1 4 2 C1.14184349 3.42907825 -1.04301326 2.65480668 -4.125 2.15625 C-6.09091334 1.82881211 -6.09091334 1.82881211 -8 3 C-6.88145414 6.72614153 -6.88145414 6.72614153 -4 9 C-4.33 9.66 -4.66 10.32 -5 11 C-7.97 10.67 -10.94 10.34 -14 10 C-14.33 9.01 -14.66 8.02 -15 7 C-10.86889366 0.95088 -7.24320482 -0.75784034 0 0 Z " fill="#13B399" transform="translate(354,211)"/>
<path d="M0 0 C-8.91965353 4.55942587 -15.74180967 7.84647426 -26 6 C-25.67 5.34 -25.34 4.68 -25 4 C-22.375 3.47265625 -22.375 3.47265625 -19 3.0625 C-13.97060929 2.37717643 -9.51459167 1.36335631 -4.8046875 -0.51171875 C-3 -1 -3 -1 0 0 Z " fill="#A8DF54" transform="translate(147,309)"/>
<path d="M0 0 C3.70878969 4.51504832 4.30648288 7.97270728 4.21875 13.83984375 C3.73503628 18.61651671 2.38376378 22.73484455 -1.1875 26 C-1.785625 26.33 -2.38375 26.66 -3 27 C-2.690625 26.443125 -2.38125 25.88625 -2.0625 25.3125 C-0.9208844 22.82780722 -0.28631703 20.72001179 0 18 C-0.66 17.34 -1.32 16.68 -2 16 C-0.68 15.67 0.64 15.34 2 15 C2 12.36 2 9.72 2 7 C1.34 7 0.68 7 0 7 C0 4.69 0 2.38 0 0 Z " fill="#922B68" transform="translate(133,145)"/>
<path d="M0 0 C0.33 0 0.66 0 1 0 C1 3.63 1 7.26 1 11 C1.99 11.33 2.98 11.66 4 12 C4.625 13.92578125 4.625 13.92578125 5 16.3125 C5.67786663 19.92012919 6.39643691 22.27809313 9 25 C4.19550004 23.11251787 1.81049174 19.82360642 -0.25 15.1875 C-1.43880303 10.13508714 -1.66689806 5.00069419 0 0 Z " fill="#CE3790" transform="translate(96,149)"/>
<path d="M0 0 C1.40068736 0.24449192 2.79885566 0.50693774 4.1875 0.8125 C2.4375 2.875 2.4375 2.875 0.1875 4.8125 C-2.0625 4.5625 -2.0625 4.5625 -3.8125 3.8125 C-4.01875 4.43125 -4.225 5.05 -4.4375 5.6875 C-6.36025888 8.65903645 -8.47844527 8.94274659 -11.8125 9.8125 C-9.83555516 3.52222097 -6.96756556 -0.77782571 0 0 Z " fill="#AE2476" transform="translate(108.8125,139.1875)"/>
<path d="M0 0 C15.02617946 -0.60193894 15.02617946 -0.60193894 20.4609375 4.32421875 C22.91662605 6.90879703 23.96082589 8.70899235 24.4375 12.25 C24 15 24 15 22 17 C21.90203125 16.39671875 21.8040625 15.7934375 21.703125 15.171875 C21.55359375 14.37265625 21.4040625 13.5734375 21.25 12.75 C21.11078125 11.96109375 20.9715625 11.1721875 20.828125 10.359375 C19.73306223 7.23947919 18.6657635 5.9822344 16 4 C13.28994275 3.11984765 10.56340462 2.67250776 7.75 2.25 C7.00492188 2.12496094 6.25984375 1.99992188 5.4921875 1.87109375 C3.66379497 1.56636166 1.83215696 1.28121479 0 1 C0 0.67 0 0.34 0 0 Z " fill="#981262" transform="translate(36,179)"/>
<path d="M0 0 C2.19838974 2.19838974 4.39068739 4.40021635 6.5625 6.625 C8.95845617 9.10473501 8.95845617 9.10473501 12 11 C12 11.99 12 12.98 12 14 C10.68 14.33 9.36 14.66 8 15 C7.443125 14.0925 6.88625 13.185 6.3125 12.25 C4.09567955 9.13446855 2.05118607 7.24824237 -1 5 C-1.66 4.34 -2.32 3.68 -3 3 C-2.01 2.01 -1.02 1.02 0 0 Z " fill="#3F947E" transform="translate(59,171)"/>
<path d="M0 0 C0.66 0 1.32 0 2 0 C6 6.75 6 6.75 6 9 C7.75032844 8.85816304 9.50025534 8.71136571 11.25 8.5625 C12.22453125 8.48128906 13.1990625 8.40007812 14.203125 8.31640625 C16.56461753 8.04925416 18.71901065 7.64628032 21 7 C19.625 9 19.625 9 17 11 C12.15554469 11.84961779 8.27758282 11.74525665 4 9.25 C1.18696603 6.08533679 0 4.26554773 0 0 Z " fill="#912262" transform="translate(67,130)"/>
<path d="M0 0 C1.7109375 1.32421875 1.7109375 1.32421875 2.7109375 3.32421875 C1.7003125 3.22109375 0.6896875 3.11796875 -0.3515625 3.01171875 C-4.83189361 3.36730058 -6.15842955 4.40494954 -9.53125 7.08203125 C-13.49430015 9.88258669 -18.59297077 10.47038389 -23.2890625 11.32421875 C-23.6190625 10.66421875 -23.9490625 10.00421875 -24.2890625 9.32421875 C-23.70640625 9.18886719 -23.12375 9.05351562 -22.5234375 8.9140625 C-15.87253408 7.16767748 -10.68287242 4.3417633 -4.953125 0.5546875 C-2.2890625 -0.67578125 -2.2890625 -0.67578125 0 0 Z " fill="#6BC96C" transform="translate(164.2890625,301.67578125)"/>
<path d="M0 0 C2.97 0.495 2.97 0.495 6 1 C6 1.66 6 2.32 6 3 C9.63 3.33 13.26 3.66 17 4 C13.56923077 7.43076923 13.56923077 7.43076923 9.625 7.4375 C6.1985585 7.32570746 4.99675697 6.99808066 1.9375 5.1875 C0 3 0 3 0 0 Z " fill="#A11B68" transform="translate(1,264)"/>
<path d="M0 0 C0.33 0 0.66 0 1 0 C1 7.92 1 15.84 1 24 C0.34 23.67 -0.32 23.34 -1 23 C-2.18391261 18.5914833 -2.37085406 14.05850962 -2.71875 9.5234375 C-2.92456017 6.87765812 -2.92456017 6.87765812 -4 4 C-2.68 4 -1.36 4 0 4 C0 2.68 0 1.36 0 0 Z " fill="#96D753" transform="translate(45,232)"/>
<path d="M0 0 C1.40503535 2.59391142 2.57705808 5.26973914 3.6875 8 C3.95949219 8.66 4.23148437 9.32 4.51171875 10 C5.08433496 12.34543601 4.75352292 13.73437404 4 16 C3.34 15.67 2.68 15.34 2 15 C1.01 15.33 0.02 15.66 -1 16 C-1.09688221 10.55306686 -1.12862175 5.36095333 0 0 Z " fill="#D5E24B" transform="translate(73,249)"/>
<path d="M0 0 C1.11761719 0.02707031 1.11761719 0.02707031 2.2578125 0.0546875 C4.08909701 0.10164351 5.91971649 0.17338348 7.75 0.25 C7.42 1.9 7.09 3.55 6.75 5.25 C6.42 4.26 6.09 3.27 5.75 2.25 C3.83249714 2.33743331 1.91593335 2.4456189 0 2.5625 C-1.06734375 2.62050781 -2.1346875 2.67851562 -3.234375 2.73828125 C-6.47863994 3.28879771 -7.76194595 4.19844666 -10.25 6.25 C-13 6.4375 -13 6.4375 -15.25 6.25 C-14.26 5.59 -13.27 4.93 -12.25 4.25 C-11.69828125 3.55390625 -11.1465625 2.8578125 -10.578125 2.140625 C-7.24178895 -0.56874857 -4.09121921 -0.18793586 0 0 Z " fill="#26AB94" transform="translate(203.25,244.75)"/>
<path d="M0 0 C0.99 0.33 1.98 0.66 3 1 C3.33 1.99 3.66 2.98 4 4 C4.33 3.67 4.66 3.34 5 3 C6.66617115 2.95936168 8.33388095 2.957279 10 3 C10 5.31 10 7.62 10 10 C9.01 10 8.02 10 7 10 C7 9.34 7 8.68 7 8 C5.35 8 3.7 8 2 8 C0 2.25 0 2.25 0 0 Z " fill="#E6279A" transform="translate(29,205)"/>
<path d="M0 0 C0.99 0.33 1.98 0.66 3 1 C2.67 4.63 2.34 8.26 2 12 C0.33333333 12 -1.33333333 12 -3 12 C-3.08131463 10.56344146 -3.13933559 9.1255517 -3.1875 7.6875 C-3.22230469 6.88699219 -3.25710937 6.08648437 -3.29296875 5.26171875 C-2.93801608 2.52148416 -2.10633718 1.70828921 0 0 Z " fill="#9D1466" transform="translate(71,156)"/>
<path d="M0 0 C1.0828125 0.9590625 1.0828125 0.9590625 2.1875 1.9375 C5.88806628 4.6512486 8.49593667 5 13 5 C12.34 6.32 11.68 7.64 11 9 C4.60344828 9.36206897 4.60344828 9.36206897 2.125 7.875 C0.59569177 5.32615294 0.32529059 2.92761527 0 0 Z " fill="#A1256C" transform="translate(24,245)"/>
<path d="M0 0 C1.67110042 2.96178773 2.32682752 5.37071192 2.625 8.75 C2.69976562 9.54921875 2.77453125 10.3484375 2.8515625 11.171875 C2.90054688 11.77515625 2.94953125 12.3784375 3 13 C3.99 13.33 4.98 13.66 6 14 C6 17 6 17 5 20 C5.99 20.33 6.98 20.66 8 21 C7.34 21.66 6.68 22.32 6 23 C5.18071114 21.75443908 4.36984814 20.50333365 3.5625 19.25 C3.11003906 18.55390625 2.65757812 17.8578125 2.19140625 17.140625 C-0.0166568 13.17335106 -0.11604143 9.74748032 -0.0625 5.25 C-0.05347656 4.26515625 -0.04445312 3.2803125 -0.03515625 2.265625 C-0.02355469 1.51796875 -0.01195312 0.7703125 0 0 Z " fill="#19B198" transform="translate(160,231)"/>
<path d="M0 0 C2.31 0 4.62 0 7 0 C7.99 1.98 8.98 3.96 10 6 C7.875 6.75 7.875 6.75 5 7 C1.6875 5.0625 1.6875 5.0625 -1 3 C-0.67 2.01 -0.34 1.02 0 0 Z " fill="#DF3C95" transform="translate(29,240)"/>
<path d="M0 0 C0 1.65 0 3.3 0 5 C-3.90432869 5 -6.38026598 4.31626692 -10 3 C-9.6875 1.0625 -9.6875 1.0625 -9 -1 C-5.23375329 -2.25541557 -3.62811066 -1.37061958 0 0 Z " fill="#DF2998" transform="translate(124,106)"/>
<path d="M0 0 C0.66 0.33 1.32 0.66 2 1 C2 2.32 2 3.64 2 5 C1.34 5 0.68 5 0 5 C-0.33 6.32 -0.66 7.64 -1 9 C-1.99 9 -2.98 9 -4 9 C-4.99 12.465 -4.99 12.465 -6 16 C-6.33 16 -6.66 16 -7 16 C-6.80753701 6.98923284 -6.80753701 6.98923284 -3.5 2.9375 C-2.675 2.298125 -1.85 1.65875 -1 1 C-0.67 0.67 -0.34 0.34 0 0 Z " fill="#BB217D" transform="translate(31,184)"/>
<path d="M0 0 C0 0.33 0 0.66 0 1 C-7.92 1 -15.84 1 -24 1 C-24 1.99 -24 2.98 -24 4 C-26.97 4.66 -29.94 5.32 -33 6 C-32 3 -32 3 -29.03515625 1.359375 C-24.57151197 -0.38553519 -20.18634131 -0.59332181 -15.4375 -0.75 C-14.61314453 -0.79253906 -13.78878906 -0.83507812 -12.93945312 -0.87890625 C-8.47330607 -1.07168958 -4.4012207 -0.94159017 0 0 Z " fill="#50AA7C" transform="translate(132,183)"/>
<path d="M0 0 C2.31 1.98 4.62 3.96 7 6 C5 10 5 10 2.375 11.25 C1.59125 11.4975 0.8075 11.745 0 12 C0 8 0 4 0 0 Z " fill="#5ACA73" transform="translate(168,306)"/>
<path d="M0 0 C1.15628906 -0.01417969 2.31257813 -0.02835937 3.50390625 -0.04296875 C6.4375 0.1875 6.4375 0.1875 8.4375 2.1875 C-1.58687685 2.91654559 -11.50639808 3.32891393 -21.5625 3.1875 C-21.5625 2.8575 -21.5625 2.5275 -21.5625 2.1875 C-20.73105469 2.12691406 -19.89960937 2.06632812 -19.04296875 2.00390625 C-17.41294922 1.87822266 -17.41294922 1.87822266 -15.75 1.75 C-14.67105469 1.66878906 -13.59210938 1.58757812 -12.48046875 1.50390625 C-8.1441395 1.03370187 -4.44956786 0.02485792 0 0 Z " fill="#D0DE54" transform="translate(137.5625,284.8125)"/>
<path d="M0 0 C3.3 0 6.6 0 10 0 C10 0.33 10 0.66 10 1 C7.69 1.33 5.38 1.66 3 2 C3 2.66 3 3.32 3 4 C2.34 4 1.68 4 1 4 C1 4.99 1 5.98 1 7 C1.804375 7.28875 2.60875 7.5775 3.4375 7.875 C6 9 6 9 7 11 C-0.57142857 9.14285714 -0.57142857 9.14285714 -3 6 C-2 4 -1 2 0 0 Z " fill="#D8208D" transform="translate(6,250)"/>
<path d="M0 0 C0.99 0.33 1.98 0.66 3 1 C0.30242234 4.49098285 -2.76949524 5.18119263 -7 6 C-12.66719281 6.00985599 -17.06916693 4.9079272 -22 2 C-20.68 1.67 -19.36 1.34 -18 1 C-18 1.66 -18 2.32 -18 3 C-12.24901786 3.10414253 -6.64549608 3.20116938 -1 2 C-0.67 1.34 -0.34 0.68 0 0 Z " fill="#CB3A8B" transform="translate(54,212)"/>
<path d="M0 0 C1.125 1.75 1.125 1.75 2 4 C0.82505696 7.91647681 -2.37369351 10.95901353 -5 14 C-6.27894091 11.44211818 -5.77183056 10.70140697 -5 8 C-4.896875 7.154375 -4.79375 6.30875 -4.6875 5.4375 C-3.83298393 2.4078521 -2.63198216 1.61315036 0 0 Z " fill="#89D75B" transform="translate(85,202)"/>
<path d="M0 0 C3.37462715 0.54723683 5.08235 1.0549 8 3 C9.99541868 3.68025637 11.99617991 4.34490497 14 5 C16.35313062 5.95920786 18.67368134 6.97641979 21 8 C20.67 8.66 20.34 9.32 20 10 C16.9375 10.625 16.9375 10.625 14 11 C13.79375 10.195625 13.5875 9.39125 13.375 8.5625 C12.92125 7.716875 12.4675 6.87125 12 6 C8.94727535 5.10169161 8.94727535 5.10169161 6 5 C6 4.34 6 3.68 6 3 C3.03 2.505 3.03 2.505 0 2 C0 1.34 0 0.68 0 0 Z " fill="#44C582" transform="translate(141,170)"/>
<path d="M0 0 C3.88192126 3.76774711 7.79531881 7.62797789 11 12 C11 12.66 11 13.32 11 14 C9.33388095 14.042721 7.66617115 14.04063832 6 14 C5 13 5 13 4.9375 10.4375 C4.958125 9.633125 4.97875 8.82875 5 8 C4.01 7.67 3.02 7.34 2 7 C0.8125 3.4375 0.8125 3.4375 0 0 Z " fill="#10B098" transform="translate(246,239)"/>
<path d="M0 0 C0.66 0 1.32 0 2 0 C3.03275341 2.26607052 4.05133551 4.53681939 5.0625 6.8125 C5.50432617 7.77639648 5.50432617 7.77639648 5.95507812 8.75976562 C8.11328125 13.66015625 8.11328125 13.66015625 7 17 C6.34 15.68 5.68 14.36 5 13 C3.68 13 2.36 13 1 13 C1.20625 11.96875 1.4125 10.9375 1.625 9.875 C2.01194403 5.8765784 1.51883076 3.66306243 0 0 Z " fill="#16B39A" transform="translate(440,211)"/>
<path d="M0 0 C4.62 1.65 9.24 3.3 14 5 C13.34 6.32 12.68 7.64 12 9 C9.03 8.505 9.03 8.505 6 8 C6.33 6.68 6.66 5.36 7 4 C5.35 4 3.7 4 2 4 C2 3.34 2 2.68 2 2 C1.34 2 0.68 2 0 2 C0 1.34 0 0.68 0 0 Z " fill="#C71D85" transform="translate(5,258)"/>
<path d="M0 0 C0.33 0.66 0.66 1.32 1 2 C-0.2375 2.7115625 -0.2375 2.7115625 -1.5 3.4375 C-4.2412499 6.24728115 -4.38132925 6.67397146 -4.4375 10.375 C-4.23020503 14.17540785 -3.45173132 17.46140491 -2 21 C-2.66 21 -3.32 21 -4 21 C-7.09854638 17.30557931 -7.56976899 13.8842568 -7.4296875 9.22265625 C-6.69387346 5.41649091 -4.77545759 3.64329294 -2 1 C-1.34 0.67 -0.68 0.34 0 0 Z " fill="#7A2456" transform="translate(72,154)"/>
<path d="M0 0 C0.66 0.33 1.32 0.66 2 1 C0.68 3.31 -0.64 5.62 -2 8 C-4.66666667 8 -7.33333333 8 -10 8 C-10.33 7.34 -10.66 6.68 -11 6 C-10.34 5.01 -9.68 4.02 -9 3 C-9 3.66 -9 4.32 -9 5 C-5.54074837 3.7508258 -2.85306797 2.32472205 0 0 Z " fill="#A4D651" transform="translate(67,216)"/>
<path d="M0 0 C0.33 0 0.66 0 1 0 C1.3090379 9.27113703 1.3090379 9.27113703 -1 12 C-4.125 13.25 -4.125 13.25 -7 14 C-7.33 12.35 -7.66 10.7 -8 9 C-6.68 8.34 -5.36 7.68 -4 7 C-4 7.99 -4 8.98 -4 10 C-3.34 10 -2.68 10 -2 10 C-1.34 6.7 -0.68 3.4 0 0 Z " fill="#B8277D" transform="translate(90,125)"/>
<path d="M0 0 C0.99 0.33 1.98 0.66 3 1 C2.52433594 2.24136719 2.52433594 2.24136719 2.0390625 3.5078125 C0.90524027 7.31847819 0.55838311 10.93226312 0.375 14.875 C0.33632812 15.56335938 0.29765625 16.25171875 0.2578125 16.9609375 C0.16451834 18.64023246 0.08121762 20.32007767 0 22 C-0.33 22 -0.66 22 -1 22 C-1.06058594 21.03578125 -1.12117188 20.0715625 -1.18359375 19.078125 C-1.26738281 17.81484375 -1.35117188 16.5515625 -1.4375 15.25 C-1.51871094 13.99703125 -1.59992188 12.7440625 -1.68359375 11.453125 C-1.92515522 8.81682447 -2.24283934 6.51962706 -3 4 C-2.01 3.67 -1.02 3.34 0 3 C0 2.01 0 1.02 0 0 Z " fill="#8CBC6C" transform="translate(71,182)"/>
<path d="M0 0 C0.66 0 1.32 0 2 0 C2.66 1.32 3.32 2.64 4 4 C4 3.34 4 2.68 4 2 C4.66 2 5.32 2 6 2 C6.84098656 6.01804691 7.05404945 9.01803543 6 13 C2.57068046 9.2440786 1.43570917 4.76533255 0 0 Z " fill="#CCE349" transform="translate(33,271)"/>
<path d="M0 0 C0.99 0.495 0.99 0.495 2 1 C2 1.99 2 2.98 2 4 C4.31 4 6.62 4 9 4 C9.33 5.65 9.66 7.3 10 9 C6.7 8.34 3.4 7.68 0 7 C0 4.69 0 2.38 0 0 Z " fill="#9DD35E" transform="translate(28,228)"/>
<path d="M0 0 C4.95 0 9.9 0 15 0 C15.66 1.98 16.32 3.96 17 6 C16.34 6 15.68 6 15 6 C15 5.34 15 4.68 15 4 C9.28728907 1.9337003 4.96345767 1.9993291 -1 3 C-0.67 2.01 -0.34 1.02 0 0 Z " fill="#1EAA95" transform="translate(388,210)"/>
<path d="M0 0 C2.31 0.33 4.62 0.66 7 1 C5.68 1.33 4.36 1.66 3 2 C3.061875 2.86625 3.12375 3.7325 3.1875 4.625 C2.97544498 8.44199033 1.87955693 10.71077536 0 14 C-1.10370043 10.6888987 -0.92673641 8.75251051 -0.5625 5.3125 C-0.46066406 4.31863281 -0.35882813 3.32476562 -0.25390625 2.30078125 C-0.17011719 1.54152344 -0.08632812 0.78226563 0 0 Z " fill="#29958B" transform="translate(142,152)"/>
<path d="M0 0 C2 1 2 1 2.8125 3 C3.85955198 5.28474077 3.85955198 5.28474077 6.625 5.75 C7.40875 5.8325 8.1925 5.915 9 6 C8.34 6.66 7.68 7.32 7 8 C0.53846154 7.53846154 0.53846154 7.53846154 -2 5 C-1.46428571 1.46428571 -1.46428571 1.46428571 0 0 Z " fill="#A11F68" transform="translate(114,110)"/>
<path d="M0 0 C6.875 0.875 6.875 0.875 8 2 C8.04063832 3.66617115 8.042721 5.33388095 8 7 C4.73810844 6.4376049 3.08865152 5.5859495 1 3 C0.67 2.01 0.34 1.02 0 0 Z " fill="#E22D99" transform="translate(5,206)"/>
<path d="M0 0 C0.99 0.33 1.98 0.66 3 1 C-1 3.66666667 -5 6.33333333 -9 9 C-9.66 8.34 -10.32 7.68 -11 7 C-10.625 4.875 -10.625 4.875 -10 3 C-8.906875 2.87625 -7.81375 2.7525 -6.6875 2.625 C-2.92618198 2.24535199 -2.92618198 2.24535199 0 0 Z " fill="#78C96C" transform="translate(96,198)"/>
<path d="M0 0 C3 1 3 1 5 3 C8.58343976 3.16677282 8.58343976 3.16677282 12 3 C10.9375 4.5 10.9375 4.5 9 6 C2.85098039 6.65882353 2.85098039 6.65882353 0.0625 4.5 C-0.4634375 3.7575 -0.4634375 3.7575 -1 3 C-0.67 2.01 -0.34 1.02 0 0 Z " fill="#952968" transform="translate(1,214)"/>
<path d="M0 0 C2.97 0 5.94 0 9 0 C6.10215093 2.89784907 4.11728855 3.92763675 -0.015625 4.1953125 C-1.08296875 4.17210937 -2.1503125 4.14890625 -3.25 4.125 C-4.32765625 4.10695312 -5.4053125 4.08890625 -6.515625 4.0703125 C-7.33546875 4.04710937 -8.1553125 4.02390625 -9 4 C-9 3.67 -9 3.34 -9 3 C-6.36 3 -3.72 3 -1 3 C-0.67 2.01 -0.34 1.02 0 0 Z " fill="#33AD83" transform="translate(121,184)"/>
<path d="M0 0 C0.99 0.66 1.98 1.32 3 2 C3.1875 5.125 3.1875 5.125 3 8 C1.02 8.99 1.02 8.99 -1 10 C-1.99 9.34 -2.98 8.68 -4 8 C-3.34 8 -2.68 8 -2 8 C-1.67 6.68 -1.34 5.36 -1 4 C-0.34 4.33 0.32 4.66 1 5 C0.67 3.35 0.34 1.7 0 0 Z " fill="#DA2792" transform="translate(18,253)"/>
<path d="M0 0 C0.33 0.66 0.66 1.32 1 2 C0.44570313 2.26554688 -0.10859375 2.53109375 -0.6796875 2.8046875 C-1.76636719 3.33449219 -1.76636719 3.33449219 -2.875 3.875 C-3.95394531 4.39707031 -3.95394531 4.39707031 -5.0546875 4.9296875 C-7.15135019 5.96557543 -7.15135019 5.96557543 -9 8 C-9 6.35 -9 4.7 -9 3 C-11.31 3 -13.62 3 -16 3 C-16 2.67 -16 2.34 -16 2 C-14.64455078 1.90912109 -14.64455078 1.90912109 -13.26171875 1.81640625 C-11.49248047 1.69072266 -11.49248047 1.69072266 -9.6875 1.5625 C-7.92986328 1.44068359 -7.92986328 1.44068359 -6.13671875 1.31640625 C-2.97409042 1.1132629 -2.97409042 1.1132629 0 0 Z " fill="#BFDE40" transform="translate(56,220)"/>
<path d="M0 0 C2 2 2 2 2.3125 5.3125 C1.98224889 9.20946309 1.42016634 10.97479208 -1 14 C-3.1875 15.3125 -3.1875 15.3125 -5 16 C-5 15.01 -5 14.02 -5 13 C-4.34 13 -3.68 13 -3 13 C-3 12.34 -3 11.68 -3 11 C-2.01 11 -1.02 11 0 11 C0 7.37 0 3.74 0 0 Z " fill="#C93D8C" transform="translate(87,160)"/>
<path d="M0 0 C-1.55603771 3.81936528 -3.95604931 6.26044438 -7 9 C-7.66 9 -8.32 9 -9 9 C-8.67 7.68 -8.34 6.36 -8 5 C-7.01 5 -6.02 5 -5 5 C-5.33 3.68 -5.66 2.36 -6 1 C-3.92446352 0.4465236 -2.15634036 0 0 0 Z " fill="#17AE93" transform="translate(209,250)"/>
<path d="M0 0 C1 3 1 3 -0.125 5.5 C-2.18351769 8.24469026 -3.89687743 9.56778959 -7 11 C-7.66 10.67 -8.32 10.34 -9 10 C-8.67 8.68 -8.34 7.36 -8 6 C-6.35 6.33 -4.7 6.66 -3 7 C-3 5.68 -3 4.36 -3 3 C-2.34 3 -1.68 3 -1 3 C-0.67 2.01 -0.34 1.02 0 0 Z " fill="#16AE93" transform="translate(364,230)"/>
<path d="M0 0 C5.53846154 -0.36923077 5.53846154 -0.36923077 7.875 1.5 C8.24625 1.995 8.6175 2.49 9 3 C8.67 3.66 8.34 4.32 8 5 C4.65626525 4.44271087 1.96687001 3.64826111 -1 2 C-0.67 1.34 -0.34 0.68 0 0 Z " fill="#C82785" transform="translate(78,155)"/>
<path d="M0 0 C1.423125 0.2165625 1.423125 0.2165625 2.875 0.4375 C7.56740347 1.11197278 12.28134412 1.55376896 17 2 C17 2.33 17 2.66 17 3 C8.585 3.495 8.585 3.495 0 4 C-0.33 3.34 -0.66 2.68 -1 2 C-0.67 1.34 -0.34 0.68 0 0 Z " fill="#4FC17D" transform="translate(105,191)"/>
<path d="M0 0 C0.33 0.66 0.66 1.32 1 2 C1.66 2.33 2.32 2.66 3 3 C1.68 6.3 0.36 9.6 -1 13 C-1.83449189 9.66203244 -2.46019653 6.39305036 -3 3 C-2.34 3 -1.68 3 -1 3 C-0.67 2.01 -0.34 1.02 0 0 Z " fill="#ABD75C" transform="translate(76,215)"/>
<path d="M0 0 C2.97 0.33 5.94 0.66 9 1 C8.67 1.66 8.34 2.32 8 3 C7.34 3 6.68 3 6 3 C5.67 3.99 5.34 4.98 5 6 C4.67 5.34 4.34 4.68 4 4 C0.97065509 3.34227572 0.97065509 3.34227572 -2 3 C-1.34 2.01 -0.68 1.02 0 0 Z " fill="#AD1774" transform="translate(34,181)"/>
<path d="M0 0 C2.62187494 1.04874998 3.79371361 1.64931313 5.25 4.125 C5.4975 4.74375 5.745 5.3625 6 6 C3.36 5.67 0.72 5.34 -2 5 C-1.34 3.35 -0.68 1.7 0 0 Z " fill="#7AA772" transform="translate(93,172)"/>
<path d="M0 0 C0.79664062 0.07863281 1.59328125 0.15726562 2.4140625 0.23828125 C3.06117187 0.38652344 3.70828125 0.53476563 4.375 0.6875 C4.705 1.3475 5.035 2.0075 5.375 2.6875 C4.71113281 2.67589844 4.04726562 2.66429688 3.36328125 2.65234375 C-3.18806787 2.56856591 -3.18806787 2.56856591 -9.625 3.6875 C-6.83276113 -0.5008583 -4.69613817 -0.51244504 0 0 Z " fill="#CF388E" transform="translate(80.625,117.3125)"/>
<path d="M0 0 C0.66 0 1.32 0 2 0 C2.061875 0.928125 2.061875 0.928125 2.125 1.875 C2.41375 2.57625 2.7025 3.2775 3 4 C5.99615946 5.3045656 5.99615946 5.3045656 9 6 C8.01 6.99 7.02 7.98 6 9 C5.67 8.34 5.34 7.68 5 7 C4.01 6.67 3.02 6.34 2 6 C2 5.34 2 4.68 2 4 C0.68 3.34 -0.64 2.68 -2 2 C-1.34 1.34 -0.68 0.68 0 0 Z " fill="#D8228B" transform="translate(4,207)"/>
<path d="M0 0 C-0.5625 1.875 -0.5625 1.875 -2 4 C-5.92468572 5.4069628 -9.90245016 6.25499094 -14 7 C-14.33 6.34 -14.66 5.68 -15 5 C-14.31292969 4.80664062 -13.62585938 4.61328125 -12.91796875 4.4140625 C-12.01691406 4.15367187 -11.11585938 3.89328125 -10.1875 3.625 C-9.29417969 3.36976563 -8.40085938 3.11453125 -7.48046875 2.8515625 C-4.71284429 1.90141741 -2.93719844 0 0 0 Z " fill="#7CD15E" transform="translate(155,306)"/>
<path d="M0 0 C0.33 0.66 0.66 1.32 1 2 C1.66 2 2.32 2 3 2 C2.67 4.64 2.34 7.28 2 10 C1.34 10 0.68 10 0 10 C-1 8 -2 6 -3 4 C-2.34 4 -1.68 4 -1 4 C-0.67 2.68 -0.34 1.36 0 0 Z " fill="#D3E63B" transform="translate(53,294)"/>
<path d="M0 0 C1.68762851 1.6454378 3.3540349 3.31288577 5 5 C5 5.33 5 5.66 5 6 C-0.94 6 -6.88 6 -13 6 C-13 5.67 -13 5.34 -13 5 C-8.38 5 -3.76 5 1 5 C0.67 3.35 0.34 1.7 0 0 Z " fill="#19AA92" transform="translate(260,256)"/>
<path d="M0 0 C6 6 6 6 6.1875 8.9375 C6 12 6 12 4 14 C3.89042969 13.39671875 3.78085937 12.7934375 3.66796875 12.171875 C2.49202872 6.06315013 2.49202872 6.06315013 -1 1 C-0.67 0.67 -0.34 0.34 0 0 Z " fill="#A51069" transform="translate(54,182)"/>
<path d="M0 0 C3.65316671 1.24976756 4.78065836 1.67098753 7 5 C4.03 5 1.06 5 -2 5 C-1.34 3.35 -0.68 1.7 0 0 Z " fill="#75CE6C" transform="translate(93,179)"/>
<path d="M0 0 C4.455 0.99 4.455 0.99 9 2 C9.33 1.34 9.66 0.68 10 0 C10.66 0.99 11.32 1.98 12 3 C10.68 3 9.36 3 8 3 C8 3.66 8 4.32 8 5 C4.5625 4.1875 4.5625 4.1875 1 3 C0.67 2.01 0.34 1.02 0 0 Z " fill="#80C157" transform="translate(90,176)"/>
<path d="M0 0 C0.33 1.32 0.66 2.64 1 4 C5.10223585 5.01540112 5.10223585 5.01540112 9 4 C8.67 4.99 8.34 5.98 8 7 C6.02 7.33 4.04 7.66 2 8 C0.4375 6.25 0.4375 6.25 -1 4 C-0.6875 1.75 -0.6875 1.75 0 0 Z " fill="#982567" transform="translate(155,124)"/>
<path d="M0 0 C3.21043882 1.38188453 5.04936365 2.92421903 7.25 5.625 C8.03117188 6.57246094 8.03117188 6.57246094 8.828125 7.5390625 C9.40820312 8.26222656 9.40820312 8.26222656 10 9 C7.5625 8.1875 7.5625 8.1875 5 7 C4.67 6.01 4.34 5.02 4 4 C1.98491642 3.26676204 1.98491642 3.26676204 0 3 C0 2.01 0 1.02 0 0 Z " fill="#ACD26E" transform="translate(150,289)"/>
<path d="M0 0 C0.99 0.33 1.98 0.66 3 1 C3 4.96 3 8.92 3 13 C2.34 12.67 1.68 12.34 1 12 C-0.17169312 8.01624339 -0.08089427 4.12560776 0 0 Z " fill="#A4D556" transform="translate(43,243)"/>
<path d="M0 0 C0.66 0.33 1.32 0.66 2 1 C1.33501617 5.38889325 -0.18757677 8.9811485 -2 13 C-2.33 13 -2.66 13 -3 13 C-3.38281159 7.76824163 -2.21854707 4.62197306 0 0 Z " fill="#1AB197" transform="translate(468,237)"/>
<path d="M0 0 C2.475 0.495 2.475 0.495 5 1 C5 3.64 5 6.28 5 9 C1.7457985 6.16569547 0.4793247 4.31392226 0 0 Z " fill="#D4328E" transform="translate(25,202)"/>
<path d="M0 0 C2.55382735 2.22071943 3.38617539 3.69479056 4 7 C4.06548492 8.58211573 4.08578381 10.16670081 4.0625 11.75 C4.05347656 12.54921875 4.04445313 13.3484375 4.03515625 14.171875 C4.01775391 15.07679688 4.01775391 15.07679688 4 16 C3.67 16 3.34 16 3 16 C2.34 12.7 1.68 9.4 1 6 C0.67 6 0.34 6 0 6 C0 4.02 0 2.04 0 0 Z " fill="#8B3368" transform="translate(61,186)"/>
<path d="M0 0 C2.31 0.33 4.62 0.66 7 1 C7 1.99 7 2.98 7 4 C5.68 4 4.36 4 3 4 C3 4.66 3 5.32 3 6 C2.34 6 1.68 6 1 6 C0.67 4.02 0.34 2.04 0 0 Z " fill="#E22396" transform="translate(79,158)"/>
<path d="M0 0 C0.99 0.99 1.98 1.98 3 3 C3.33 2.01 3.66 1.02 4 0 C5.32 1.65 6.64 3.3 8 5 C4.79937313 6.60031344 2.27728194 5.03173691 -1 4 C-0.67 2.68 -0.34 1.36 0 0 Z " fill="#0DB097" transform="translate(170,242)"/>
<path d="M0 0 C0.66 0 1.32 0 2 0 C2.26218749 3.14624993 2.24754367 4.61837017 0.5 7.3125 C-0.2425 8.1478125 -0.2425 8.1478125 -1 9 C-1.99 8.67 -2.98 8.34 -4 8 C-4 7.01 -4 6.02 -4 5 C-3.01 4.67 -2.02 4.34 -1 4 C-0.26676204 1.98491642 -0.26676204 1.98491642 0 0 Z " fill="#B81877" transform="translate(61,198)"/>
<path d="M0 0 C2.97 0.495 2.97 0.495 6 1 C6.33 2.32 6.66 3.64 7 5 C5.68 5.33 4.36 5.66 3 6 C2.01 4.02 1.02 2.04 0 0 Z " fill="#3AA67A" transform="translate(64,180)"/>
<path d="M0 0 C0.99 0 1.98 0 3 0 C3.75 2.125 3.75 2.125 4 5 C0.90666667 10.54666667 0.90666667 10.54666667 -2 12 C-1.690625 11.443125 -1.38125 10.88625 -1.0625 10.3125 C0.0791156 7.82780722 0.71368297 5.72001179 1 3 C0.34 2.34 -0.32 1.68 -1 1 C-0.67 0.67 -0.34 0.34 0 0 Z " fill="#A92D75" transform="translate(132,160)"/>
<path d="M0 0 C1.98 0.66 3.96 1.32 6 2 C6 3.32 6 4.64 6 6 C5.34 5.67 4.68 5.34 4 5 C2.68 5 1.36 5 0 5 C-0.66 4.67 -1.32 4.34 -2 4 C-2 3.34 -2 2.68 -2 2 C-1.34 2 -0.68 2 0 2 C0 1.34 0 0.68 0 0 Z " fill="#D8E73D" transform="translate(99,282)"/>
<path d="M0 0 C0.99 0.99 1.98 1.98 3 3 C2.67 3.99 2.34 4.98 2 6 C1.34 6 0.68 6 0 6 C0 6.66 0 7.32 0 8 C-1.98 8.99 -1.98 8.99 -4 10 C-2.66666667 6.66666667 -1.33333333 3.33333333 0 0 Z " fill="#97C265" transform="translate(69,204)"/>
<path d="M0 0 C0.33 0.99 0.66 1.98 1 3 C-2.26760563 8.63380282 -2.26760563 8.63380282 -5 10 C-4.49701212 5.59885603 -2.91227269 3.28804981 0 0 Z " fill="#AC3176" transform="translate(63,202)"/>
<path d="M0 0 C0.66 0.33 1.32 0.66 2 1 C2 2.32 2 3.64 2 5 C1 6 1 6 -1.5625 6.0625 C-2.7690625 6.0315625 -2.7690625 6.0315625 -4 6 C-2.25 1.125 -2.25 1.125 0 0 Z " fill="#E02492" transform="translate(122,170)"/>
<path d="M0 0 C1.875 0.3125 1.875 0.3125 4 1 C4.66 1.99 5.32 2.98 6 4 C6.33 4 6.66 4 7 4 C7 5.65 7 7.3 7 9 C4.03595495 6.19195732 1.55500981 3.81684226 0 0 Z " fill="#DCE856" transform="translate(46,295)"/>
<path d="M0 0 C1.79133978 -0.05391993 3.58313899 -0.09275571 5.375 -0.125 C6.37273437 -0.14820313 7.37046875 -0.17140625 8.3984375 -0.1953125 C11 0 11 0 13 2 C11.39884424 2.2493357 9.79379841 2.47378648 8.1875 2.6875 C6.84751953 2.87892578 6.84751953 2.87892578 5.48046875 3.07421875 C3 3 3 3 1.17578125 1.51953125 C0.78777344 1.01808594 0.39976562 0.51664062 0 0 Z " fill="#C5D965" transform="translate(133,285)"/>
<path d="M0 0 C0.66 0.33 1.32 0.66 2 1 C1.360625 1.845625 0.72125 2.69125 0.0625 3.5625 C-2.1966273 6.90728565 -2.67791759 9.97396992 -3 14 C-3.33 14 -3.66 14 -4 14 C-4.63019694 5.96498906 -4.63019694 5.96498906 -2 1.9375 C-1.34 1.298125 -0.68 0.65875 0 0 Z " fill="#BC2A80" transform="translate(4,251)"/>
<path d="M0 0 C3.3 0 6.6 0 10 0 C10 0.33 10 0.66 10 1 C7.69 1.33 5.38 1.66 3 2 C3 2.66 3 3.32 3 4 C2.34 4 1.68 4 1 4 C0.67 4.99 0.34 5.98 0 7 C-1.125 2.25 -1.125 2.25 0 0 Z " fill="#DC2C94" transform="translate(6,250)"/>
<path d="M0 0 C1.60685189 4.01712972 0.43257376 7.06042217 -1 11 C-2.578125 12.71484375 -2.578125 12.71484375 -4 14 C-3.00956295 9.16371695 -2.04301154 4.52381127 0 0 Z " fill="#26AB97" transform="translate(381,228)"/>
<path d="M0 0 C1.0194119 0.98020375 2.02246356 1.97803008 3 3 C2.67 3.99 2.34 4.98 2 6 C1.278125 5.525625 0.55625 5.05125 -0.1875 4.5625 C-2.89475226 3.05847097 -4.96194275 2.43400818 -8 2 C-8 1.67 -8 1.34 -8 1 C-2.25 -1.125 -2.25 -1.125 0 0 Z " fill="#1FB099" transform="translate(300,220)"/>
<path d="M0 0 C1.0625 1.875 1.0625 1.875 2 4 C1.67 4.66 1.34 5.32 1 6 C-0.98 6 -2.96 6 -5 6 C-5.33 5.01 -5.66 4.02 -6 3 C-3.03 3.495 -3.03 3.495 0 4 C0 2.68 0 1.36 0 0 Z " fill="#BE227E" transform="translate(49,149)"/>
<path d="M0 0 C2.33944736 0.28730055 4.6739143 0.61936779 7 1 C5.1875 3 5.1875 3 3 5 C2.01 5 1.02 5 0 5 C-0.5625 3.0625 -0.5625 3.0625 -1 1 C-0.67 0.67 -0.34 0.34 0 0 Z " fill="#B31774" transform="translate(106,139)"/>
<path d="M0 0 C0.66 0 1.32 0 2 0 C3.32 2.31 4.64 4.62 6 7 C5.01 7.33 4.02 7.66 3 8 C0 3.375 0 3.375 0 0 Z " fill="#9A1F67" transform="translate(67,130)"/>
<path d="M0 0 C0.33 0.66 0.66 1.32 1 2 C3.64 2 6.28 2 9 2 C8.67 2.99 8.34 3.98 8 5 C5.125 5.125 5.125 5.125 2 5 C1.34 4.34 0.68 3.68 0 3 C0 2.01 0 1.02 0 0 Z " fill="#B62179" transform="translate(116,111)"/>
<path d="M0 0 C2.64 0 5.28 0 8 0 C7 2 7 2 5.4375 2.625 C1.93601819 3.16368951 -1.45806833 3.05903219 -5 3 C-5 2.67 -5 2.34 -5 2 C-3.35 2 -1.7 2 0 2 C0 1.34 0 0.68 0 0 Z " fill="#A1D559" transform="translate(135,328)"/>
<path d="M0 0 C3 0 3 0 4.6875 1.375 C6 3 6 3 6 5 C3.69 5 1.38 5 -1 5 C-0.67 3.35 -0.34 1.7 0 0 Z " fill="#87D55E" transform="translate(145,321)"/>
<path d="M0 0 C0.66 0.33 1.32 0.66 2 1 C0.75 3.5 0.75 3.5 -1 6 C-2.32 6 -3.64 6 -5 6 C-3.63016497 2.83884224 -3.0109362 2.0072908 0 0 Z " fill="#9ECB5F" transform="translate(63,215)"/>
<path d="M0 0 C1.32 0.66 2.64 1.32 4 2 C3.625 4.4375 3.625 4.4375 3 7 C2.01 7.495 2.01 7.495 1 8 C1 7.34 1 6.68 1 6 C0.34 5.67 -0.32 5.34 -1 5 C-0.67 3.35 -0.34 1.7 0 0 Z " fill="#BF1D80" transform="translate(130,161)"/>
<path d="M0 0 C1.65 0 3.3 0 5 0 C5 2 5 2 3.6875 3.625 C2 5 2 5 -1 5 C-0.67 3.35 -0.34 1.7 0 0 Z " fill="#CDE145" transform="translate(31,259)"/>
<path d="M0 0 C3.77491089 1.25830363 5.46183391 2.96830161 8 6 C7.640625 8.16796875 7.640625 8.16796875 7 10 C5.83043409 8.52312468 4.66441854 7.04343707 3.5 5.5625 C2.8503125 4.73878906 2.200625 3.91507813 1.53125 3.06640625 C0 1 0 1 0 0 Z " fill="#1CAE96" transform="translate(232,241)"/>
<path d="M0 0 C0.66 0.33 1.32 0.66 2 1 C2.4140625 3.06640625 2.4140625 3.06640625 2.625 5.5625 C2.69976562 6.38878906 2.77453125 7.21507812 2.8515625 8.06640625 C2.92503906 9.02353516 2.92503906 9.02353516 3 10 C2.34 10 1.68 10 1 10 C1 8.68 1 7.36 1 6 C0.34 5.67 -0.32 5.34 -1 5 C-0.67 3.35 -0.34 1.7 0 0 Z " fill="#16B097" transform="translate(363,219)"/>
<path d="M0 0 C0.99 1.32 1.98 2.64 3 4 C2.01 4.495 2.01 4.495 1 5 C1 5.66 1 6.32 1 7 C0.34 7 -0.32 7 -1 7 C-1 8.32 -1 9.64 -1 11 C-1.66 11 -2.32 11 -3 11 C-2.01 7.37 -1.02 3.74 0 0 Z " fill="#1AB097" transform="translate(386,213)"/>
<path d="M0 0 C0.33 0 0.66 0 1 0 C0.64766839 5.4611399 0.64766839 5.4611399 0 8 C-2.0625 9.5 -2.0625 9.5 -4 10 C-2.8905928 6.51329166 -1.73662334 3.22515763 0 0 Z " fill="#BA337D" transform="translate(21,258)"/>
<path d="M0 0 C0.66 0.99 1.32 1.98 2 3 C1.34 4.32 0.68 5.64 0 7 C-0.66 7 -1.32 7 -2 7 C-2.125 4.625 -2.125 4.625 -2 2 C-1.34 1.34 -0.68 0.68 0 0 Z " fill="#D92091" transform="translate(27,195)"/>
<path d="M0 0 C-3.465 2.97 -3.465 2.97 -7 6 C-7.33 4.68 -7.66 3.36 -8 2 C-5.44123378 -0.55876622 -3.37797483 -1.68898741 0 0 Z " fill="#19AA8F" transform="translate(171,170)"/>
<path d="M0 0 C2.475 0.99 2.475 0.99 5 2 C4 5 4 5 2 6 C1.34 5.67 0.68 5.34 0 5 C0 3.35 0 1.7 0 0 Z " fill="#9E1567" transform="translate(128,143)"/>
<path d="M0 0 C3.4375 0.8125 3.4375 0.8125 7 2 C7.33 2.99 7.66 3.98 8 5 C4.85262818 4.30058404 1.97411124 3.23921302 -1 2 C-0.67 1.34 -0.34 0.68 0 0 Z " fill="#D11F8D" transform="translate(29,244)"/>
<path d="M0 0 C4.875 4.625 4.875 4.625 6 8 C4.68 7.67 3.36 7.34 2 7 C1.34 4.69 0.68 2.38 0 0 Z " fill="#1DAD99" transform="translate(246,239)"/>
<path d="M0 0 C0.66 0.33 1.32 0.66 2 1 C0.02 3.97 0.02 3.97 -2 7 C-1.67 7.66 -1.34 8.32 -1 9 C-1.99 8.67 -2.98 8.34 -4 8 C-4 6.68 -4 5.36 -4 4 C-3.34 4 -2.68 4 -2 4 C-1.34 2.68 -0.68 1.36 0 0 Z " fill="#1DAB94" transform="translate(247,230)"/>
<path d="M0 0 C0 0.66 0 1.32 0 2 C-2.97 2.66 -5.94 3.32 -9 4 C-8.67 3.01 -8.34 2.02 -8 1 C-5.17884816 -0.07009208 -3.09455459 0 0 0 Z " fill="#4DC470" transform="translate(108,185)"/>
<path d="M0 0 C0.99 0.33 1.98 0.66 3 1 C2.34 2.65 1.68 4.3 1 6 C-0.32 6 -1.64 6 -3 6 C-2.67 5.01 -2.34 4.02 -2 3 C-1.34 3 -0.68 3 0 3 C0 2.01 0 1.02 0 0 Z " fill="#72BA6F" transform="translate(71,182)"/>
<path d="M0 0 C-2.97 2.475 -2.97 2.475 -6 5 C-6 3.35 -6 1.7 -6 0 C-3.50907189 -1.24546405 -2.58919267 -0.7767578 0 0 Z " fill="#5BBF7F" transform="translate(160,181)"/>
<path d="M0 0 C5.75 1.75 5.75 1.75 8 4 C6.68 4.33 5.36 4.66 4 5 C4 4.34 4 3.68 4 3 C2.35 2.67 0.7 2.34 -1 2 C-0.67 1.34 -0.34 0.68 0 0 Z " fill="#A01365" transform="translate(120,138)"/>
<path d="M0 0 C0.66 0.33 1.32 0.66 2 1 C0.9024777 3.99324263 0.32317108 4.84610901 -2.625 6.25 C-3.40875 6.4975 -4.1925 6.745 -5 7 C-3.88820837 3.66462511 -2.52588702 2.36292656 0 0 Z " fill="#6AC47A" transform="translate(173,311)"/>
<path d="M0 0 C2.97 0.495 2.97 0.495 6 1 C4.68 2.32 3.36 3.64 2 5 C1.01 4.67 0.02 4.34 -1 4 C-0.67 2.68 -0.34 1.36 0 0 Z " fill="#97DC5B" transform="translate(157,299)"/>
<path d="M0 0 C1.485 0.99 1.485 0.99 3 2 C2.67 2.66 2.34 3.32 2 4 C1.77532169 5.53668865 1.59203195 7.07968054 1.4375 8.625 C1.35371094 9.44226563 1.26992188 10.25953125 1.18359375 11.1015625 C1.12300781 11.72804687 1.06242187 12.35453125 1 13 C0.67 13 0.34 13 0 13 C-0.19466332 11.20909747 -0.38051213 9.41723495 -0.5625 7.625 C-0.66691406 6.62726563 -0.77132813 5.62953125 -0.87890625 4.6015625 C-1 2 -1 2 0 0 Z " fill="#13BBAA" transform="translate(338,240)"/>
<path d="M0 0 C0.99 0 1.98 0 3 0 C3 1.98 3 3.96 3 6 C2.01 6 1.02 6 0 6 C0 4.02 0 2.04 0 0 Z " fill="#7CD167" transform="translate(42,224)"/>
<path d="M0 0 C0.99 0.33 1.98 0.66 3 1 C-1.75 5.875 -1.75 5.875 -4 7 C-2.79618552 4.50638429 -1.54571278 2.31856917 0 0 Z " fill="#17AD94" transform="translate(247,211)"/>
<path d="M0 0 C0.99 0.33 1.98 0.66 3 1 C1.02 3.31 -0.96 5.62 -3 8 C-4 6 -4 6 -3.1875 3.4375 C-2 1 -2 1 0 0 Z " fill="#95CB64" transform="translate(83,208)"/>
<path d="M0 0 C0.99 0 1.98 0 3 0 C5.09350689 3.4019487 5.17942163 6.05272412 5 10 C4.67 10 4.34 10 4 10 C3.71125 9.030625 3.4225 8.06125 3.125 7.0625 C2.35785318 3.89335797 2.35785318 3.89335797 0 3 C0 2.01 0 1.02 0 0 Z " fill="#CB1E85" transform="translate(74,159)"/>
<path d="M0 0 C3.0831351 1.19899698 6.06279492 2.47700477 9 4 C7.3125 4.8125 7.3125 4.8125 5 5 C2.25 2.5625 2.25 2.5625 0 0 Z " fill="#881E5C" transform="translate(1,266)"/>
<path d="M0 0 C1.65 0 3.3 0 5 0 C4.67 1.32 4.34 2.64 4 4 C3.34 3.67 2.68 3.34 2 3 C1.01 3.33 0.02 3.66 -1 4 C-0.67 2.68 -0.34 1.36 0 0 Z " fill="#D4E63B" transform="translate(73,261)"/>
<path d="M0 0 C0.99 0.33 1.98 0.66 3 1 C1.35830472 3.02054804 -0.30911778 5.02043058 -2 7 C-2.33 7 -2.66 7 -3 7 C-3 5.35 -3 3.7 -3 2 C-2.01 2 -1.02 2 0 2 C0 1.34 0 0.68 0 0 Z " fill="#20A892" transform="translate(254,221)"/>
<path d="M0 0 C0 1.98 0 3.96 0 6 C-2.475 5.01 -2.475 5.01 -5 4 C-1.125 0 -1.125 0 0 0 Z " fill="#0FB39B" transform="translate(245,217)"/>
<path d="M0 0 C3 1 3 1 5 3 C5.99 3.66 6.98 4.32 8 5 C4.37471432 5.20140476 2.13498292 4.85776765 -1 3 C-0.67 2.01 -0.34 1.02 0 0 Z " fill="#A4196B" transform="translate(1,214)"/>
<path d="M0 0 C0 3 0 3 -1.375 4.6875 C-3 6 -3 6 -5 6 C-4.75 4.125 -4.75 4.125 -4 2 C-1.9375 0.75 -1.9375 0.75 0 0 Z " fill="#58B26C" transform="translate(142,172)"/>
</svg>
